<?xml version="1.0" encoding="utf-8" standalone="no"?>
<!DOCTYPE svg PUBLIC "-//W3C//DTD SVG 1.1//EN"
  "http://www.w3.org/Graphics/SVG/1.1/DTD/svg11.dtd">
<svg xmlns:xlink="http://www.w3.org/1999/xlink" width="576pt" height="432pt" viewBox="0 0 576 432" xmlns="http://www.w3.org/2000/svg" version="1.1">
 <metadata>
  <rdf:RDF xmlns:dc="http://purl.org/dc/elements/1.1/" xmlns:cc="http://creativecommons.org/ns#" xmlns:rdf="http://www.w3.org/1999/02/22-rdf-syntax-ns#">
   <cc:Work>
    <dc:type rdf:resource="http://purl.org/dc/dcmitype/StillImage"/>
    <dc:date>2024-10-24T16:01:21.205462</dc:date>
    <dc:format>image/svg+xml</dc:format>
    <dc:creator>
     <cc:Agent>
      <dc:title>Matplotlib v3.9.2, https://matplotlib.org/</dc:title>
     </cc:Agent>
    </dc:creator>
   </cc:Work>
  </rdf:RDF>
 </metadata>
 <defs>
  <style type="text/css">*{stroke-linejoin: round; stroke-linecap: butt}</style>
 </defs>
 <g id="figure_1">
  <g id="patch_1">
   <path d="M 0 432 
L 576 432 
L 576 0 
L 0 0 
z
" style="fill: #ffffff"/>
  </g>
  <g id="axes_1">
   <g id="patch_2">
    <path d="M 72 384.48 
L 518.4 384.48 
L 518.4 51.84 
L 72 51.84 
z
" style="fill: #ffffff"/>
   </g>
   <g id="PathCollection_1">
    <defs>
     <path id="mebda6cf774" d="M -1.118034 -1.936492 
L -2.236068 -0 
L -1.118034 1.936492 
L 1.118034 1.936492 
L 2.236068 0 
L 1.118034 -1.936492 
z
" style="stroke: #0000ff"/>
    </defs>
    <g clip-path="url(#p2d6bdae908)">
     <use xlink:href="#mebda6cf774" x="72" y="384.48" style="fill: #0000ff; stroke: #0000ff"/>
     <use xlink:href="#mebda6cf774" x="76.797575" y="354.805939" style="fill: #0000ff; stroke: #0000ff"/>
     <use xlink:href="#mebda6cf774" x="81.595149" y="329.697118" style="fill: #0000ff; stroke: #0000ff"/>
     <use xlink:href="#mebda6cf774" x="86.392724" y="306.870917" style="fill: #0000ff; stroke: #0000ff"/>
     <use xlink:href="#mebda6cf774" x="91.190299" y="286.327336" style="fill: #0000ff; stroke: #0000ff"/>
     <use xlink:href="#mebda6cf774" x="95.987873" y="268.066376" style="fill: #0000ff; stroke: #0000ff"/>
     <use xlink:href="#mebda6cf774" x="100.785448" y="249.805415" style="fill: #0000ff; stroke: #0000ff"/>
     <use xlink:href="#mebda6cf774" x="105.583023" y="236.109694" style="fill: #0000ff; stroke: #0000ff"/>
     <use xlink:href="#mebda6cf774" x="110.380597" y="222.413974" style="fill: #0000ff; stroke: #0000ff"/>
     <use xlink:href="#mebda6cf774" x="115.178172" y="211.000873" style="fill: #0000ff; stroke: #0000ff"/>
     <use xlink:href="#mebda6cf774" x="119.975746" y="199.587773" style="fill: #0000ff; stroke: #0000ff"/>
     <use xlink:href="#mebda6cf774" x="124.773321" y="190.457293" style="fill: #0000ff; stroke: #0000ff"/>
     <use xlink:href="#mebda6cf774" x="129.570896" y="181.326812" style="fill: #0000ff; stroke: #0000ff"/>
     <use xlink:href="#mebda6cf774" x="134.36847" y="172.196332" style="fill: #0000ff; stroke: #0000ff"/>
     <use xlink:href="#mebda6cf774" x="139.166045" y="165.348472" style="fill: #0000ff; stroke: #0000ff"/>
     <use xlink:href="#mebda6cf774" x="143.96362" y="160.783231" style="fill: #0000ff; stroke: #0000ff"/>
     <use xlink:href="#mebda6cf774" x="148.761194" y="153.935371" style="fill: #0000ff; stroke: #0000ff"/>
     <use xlink:href="#mebda6cf774" x="153.558769" y="149.370131" style="fill: #0000ff; stroke: #0000ff"/>
     <use xlink:href="#mebda6cf774" x="158.356344" y="144.804891" style="fill: #0000ff; stroke: #0000ff"/>
     <use xlink:href="#mebda6cf774" x="163.153918" y="137.957031" style="fill: #0000ff; stroke: #0000ff"/>
     <use xlink:href="#mebda6cf774" x="167.951493" y="135.67441" style="fill: #0000ff; stroke: #0000ff"/>
     <use xlink:href="#mebda6cf774" x="172.749068" y="131.10917" style="fill: #0000ff; stroke: #0000ff"/>
     <use xlink:href="#mebda6cf774" x="177.546642" y="128.82655" style="fill: #0000ff; stroke: #0000ff"/>
     <use xlink:href="#mebda6cf774" x="182.344217" y="126.54393" style="fill: #0000ff; stroke: #0000ff"/>
     <use xlink:href="#mebda6cf774" x="187.141792" y="124.26131" style="fill: #0000ff; stroke: #0000ff"/>
     <use xlink:href="#mebda6cf774" x="191.939366" y="121.97869" style="fill: #0000ff; stroke: #0000ff"/>
     <use xlink:href="#mebda6cf774" x="196.736941" y="119.69607" style="fill: #0000ff; stroke: #0000ff"/>
     <use xlink:href="#mebda6cf774" x="201.534516" y="117.41345" style="fill: #0000ff; stroke: #0000ff"/>
     <use xlink:href="#mebda6cf774" x="206.33209" y="115.13083" style="fill: #0000ff; stroke: #0000ff"/>
     <use xlink:href="#mebda6cf774" x="211.129665" y="115.13083" style="fill: #0000ff; stroke: #0000ff"/>
     <use xlink:href="#mebda6cf774" x="215.927239" y="112.84821" style="fill: #0000ff; stroke: #0000ff"/>
     <use xlink:href="#mebda6cf774" x="220.724814" y="112.84821" style="fill: #0000ff; stroke: #0000ff"/>
     <use xlink:href="#mebda6cf774" x="225.522389" y="110.56559" style="fill: #0000ff; stroke: #0000ff"/>
     <use xlink:href="#mebda6cf774" x="230.319963" y="110.56559" style="fill: #0000ff; stroke: #0000ff"/>
     <use xlink:href="#mebda6cf774" x="235.117538" y="108.282969" style="fill: #0000ff; stroke: #0000ff"/>
     <use xlink:href="#mebda6cf774" x="239.915113" y="108.282969" style="fill: #0000ff; stroke: #0000ff"/>
     <use xlink:href="#mebda6cf774" x="244.712687" y="108.282969" style="fill: #0000ff; stroke: #0000ff"/>
     <use xlink:href="#mebda6cf774" x="249.510262" y="106.000349" style="fill: #0000ff; stroke: #0000ff"/>
     <use xlink:href="#mebda6cf774" x="254.307837" y="106.000349" style="fill: #0000ff; stroke: #0000ff"/>
     <use xlink:href="#mebda6cf774" x="259.105411" y="124.26131" style="fill: #0000ff; stroke: #0000ff"/>
     <use xlink:href="#mebda6cf774" x="263.902986" y="144.804891" style="fill: #0000ff; stroke: #0000ff"/>
     <use xlink:href="#mebda6cf774" x="268.700561" y="165.348472" style="fill: #0000ff; stroke: #0000ff"/>
     <use xlink:href="#mebda6cf774" x="273.498135" y="183.609432" style="fill: #0000ff; stroke: #0000ff"/>
     <use xlink:href="#mebda6cf774" x="278.29571" y="204.153013" style="fill: #0000ff; stroke: #0000ff"/>
     <use xlink:href="#mebda6cf774" x="283.093285" y="217.848734" style="fill: #0000ff; stroke: #0000ff"/>
     <use xlink:href="#mebda6cf774" x="287.890859" y="231.544454" style="fill: #0000ff; stroke: #0000ff"/>
     <use xlink:href="#mebda6cf774" x="292.688434" y="242.957555" style="fill: #0000ff; stroke: #0000ff"/>
     <use xlink:href="#mebda6cf774" x="297.486009" y="256.653275" style="fill: #0000ff; stroke: #0000ff"/>
     <use xlink:href="#mebda6cf774" x="302.283583" y="265.783755" style="fill: #0000ff; stroke: #0000ff"/>
     <use xlink:href="#mebda6cf774" x="307.081158" y="274.914236" style="fill: #0000ff; stroke: #0000ff"/>
     <use xlink:href="#mebda6cf774" x="311.878732" y="284.044716" style="fill: #0000ff; stroke: #0000ff"/>
     <use xlink:href="#mebda6cf774" x="316.676307" y="293.175197" style="fill: #0000ff; stroke: #0000ff"/>
     <use xlink:href="#mebda6cf774" x="321.473882" y="300.023057" style="fill: #0000ff; stroke: #0000ff"/>
     <use xlink:href="#mebda6cf774" x="326.271456" y="306.870917" style="fill: #0000ff; stroke: #0000ff"/>
     <use xlink:href="#mebda6cf774" x="331.069031" y="313.718777" style="fill: #0000ff; stroke: #0000ff"/>
     <use xlink:href="#mebda6cf774" x="335.866606" y="320.566638" style="fill: #0000ff; stroke: #0000ff"/>
     <use xlink:href="#mebda6cf774" x="340.66418" y="325.131878" style="fill: #0000ff; stroke: #0000ff"/>
     <use xlink:href="#mebda6cf774" x="345.461755" y="329.697118" style="fill: #0000ff; stroke: #0000ff"/>
     <use xlink:href="#mebda6cf774" x="350.25933" y="334.262358" style="fill: #0000ff; stroke: #0000ff"/>
     <use xlink:href="#mebda6cf774" x="355.056904" y="338.827598" style="fill: #0000ff; stroke: #0000ff"/>
     <use xlink:href="#mebda6cf774" x="359.854479" y="343.392838" style="fill: #0000ff; stroke: #0000ff"/>
     <use xlink:href="#mebda6cf774" x="364.652054" y="345.675459" style="fill: #0000ff; stroke: #0000ff"/>
     <use xlink:href="#mebda6cf774" x="369.449628" y="350.240699" style="fill: #0000ff; stroke: #0000ff"/>
     <use xlink:href="#mebda6cf774" x="374.247203" y="352.523319" style="fill: #0000ff; stroke: #0000ff"/>
     <use xlink:href="#mebda6cf774" x="379.044778" y="357.088559" style="fill: #0000ff; stroke: #0000ff"/>
     <use xlink:href="#mebda6cf774" x="383.842352" y="359.371179" style="fill: #0000ff; stroke: #0000ff"/>
     <use xlink:href="#mebda6cf774" x="388.639927" y="359.371179" style="fill: #0000ff; stroke: #0000ff"/>
     <use xlink:href="#mebda6cf774" x="393.437502" y="363.936419" style="fill: #0000ff; stroke: #0000ff"/>
     <use xlink:href="#mebda6cf774" x="398.235076" y="363.936419" style="fill: #0000ff; stroke: #0000ff"/>
     <use xlink:href="#mebda6cf774" x="403.032651" y="366.219039" style="fill: #0000ff; stroke: #0000ff"/>
     <use xlink:href="#mebda6cf774" x="407.830225" y="368.501659" style="fill: #0000ff; stroke: #0000ff"/>
     <use xlink:href="#mebda6cf774" x="412.6278" y="368.501659" style="fill: #0000ff; stroke: #0000ff"/>
     <use xlink:href="#mebda6cf774" x="417.425375" y="370.784279" style="fill: #0000ff; stroke: #0000ff"/>
     <use xlink:href="#mebda6cf774" x="422.222949" y="373.0669" style="fill: #0000ff; stroke: #0000ff"/>
     <use xlink:href="#mebda6cf774" x="427.020524" y="373.0669" style="fill: #0000ff; stroke: #0000ff"/>
     <use xlink:href="#mebda6cf774" x="431.818099" y="375.34952" style="fill: #0000ff; stroke: #0000ff"/>
     <use xlink:href="#mebda6cf774" x="436.615673" y="375.34952" style="fill: #0000ff; stroke: #0000ff"/>
     <use xlink:href="#mebda6cf774" x="441.413248" y="375.34952" style="fill: #0000ff; stroke: #0000ff"/>
     <use xlink:href="#mebda6cf774" x="446.210823" y="377.63214" style="fill: #0000ff; stroke: #0000ff"/>
     <use xlink:href="#mebda6cf774" x="451.008397" y="377.63214" style="fill: #0000ff; stroke: #0000ff"/>
     <use xlink:href="#mebda6cf774" x="455.805972" y="377.63214" style="fill: #0000ff; stroke: #0000ff"/>
     <use xlink:href="#mebda6cf774" x="460.603547" y="379.91476" style="fill: #0000ff; stroke: #0000ff"/>
     <use xlink:href="#mebda6cf774" x="465.401121" y="379.91476" style="fill: #0000ff; stroke: #0000ff"/>
     <use xlink:href="#mebda6cf774" x="470.198696" y="379.91476" style="fill: #0000ff; stroke: #0000ff"/>
     <use xlink:href="#mebda6cf774" x="474.996271" y="382.19738" style="fill: #0000ff; stroke: #0000ff"/>
     <use xlink:href="#mebda6cf774" x="479.793845" y="382.19738" style="fill: #0000ff; stroke: #0000ff"/>
     <use xlink:href="#mebda6cf774" x="484.59142" y="382.19738" style="fill: #0000ff; stroke: #0000ff"/>
     <use xlink:href="#mebda6cf774" x="489.388994" y="382.19738" style="fill: #0000ff; stroke: #0000ff"/>
     <use xlink:href="#mebda6cf774" x="494.186569" y="382.19738" style="fill: #0000ff; stroke: #0000ff"/>
     <use xlink:href="#mebda6cf774" x="498.984144" y="382.19738" style="fill: #0000ff; stroke: #0000ff"/>
    </g>
   </g>
   <g id="matplotlib.axis_1">
    <g id="xtick_1">
     <g id="line2d_1">
      <path d="M 72 384.48 
L 72 51.84 
" clip-path="url(#p2d6bdae908)" style="fill: none; stroke: #808080; stroke-opacity: 0.5; stroke-width: 0.5; stroke-linecap: square"/>
     </g>
     <g id="line2d_2">
      <defs>
       <path id="mbaf70f6c4c" d="M 0 0 
L 0 3.5 
" style="stroke: #000000; stroke-width: 0.8"/>
      </defs>
      <g>
       <use xlink:href="#mbaf70f6c4c" x="72" y="384.48" style="stroke: #000000; stroke-width: 0.8"/>
      </g>
     </g>
     <g id="text_1">
      <!-- 0 -->
      <g transform="translate(68.81875 399.078438) scale(0.1 -0.1)">
       <defs>
        <path id="DejaVuSans-30" d="M 2034 4250 
Q 1547 4250 1301 3770 
Q 1056 3291 1056 2328 
Q 1056 1369 1301 889 
Q 1547 409 2034 409 
Q 2525 409 2770 889 
Q 3016 1369 3016 2328 
Q 3016 3291 2770 3770 
Q 2525 4250 2034 4250 
z
M 2034 4750 
Q 2819 4750 3233 4129 
Q 3647 3509 3647 2328 
Q 3647 1150 3233 529 
Q 2819 -91 2034 -91 
Q 1250 -91 836 529 
Q 422 1150 422 2328 
Q 422 3509 836 4129 
Q 1250 4750 2034 4750 
z
" transform="scale(0.015625)"/>
       </defs>
       <use xlink:href="#DejaVuSans-30"/>
      </g>
     </g>
    </g>
    <g id="xtick_2">
     <g id="line2d_3">
      <path d="M 136.230216 384.48 
L 136.230216 51.84 
" clip-path="url(#p2d6bdae908)" style="fill: none; stroke: #808080; stroke-opacity: 0.5; stroke-width: 0.5; stroke-linecap: square"/>
     </g>
     <g id="line2d_4">
      <g>
       <use xlink:href="#mbaf70f6c4c" x="136.230216" y="384.48" style="stroke: #000000; stroke-width: 0.8"/>
      </g>
     </g>
     <g id="text_2">
      <!-- 2 -->
      <g transform="translate(133.048966 399.078438) scale(0.1 -0.1)">
       <defs>
        <path id="DejaVuSans-32" d="M 1228 531 
L 3431 531 
L 3431 0 
L 469 0 
L 469 531 
Q 828 903 1448 1529 
Q 2069 2156 2228 2338 
Q 2531 2678 2651 2914 
Q 2772 3150 2772 3378 
Q 2772 3750 2511 3984 
Q 2250 4219 1831 4219 
Q 1534 4219 1204 4116 
Q 875 4013 500 3803 
L 500 4441 
Q 881 4594 1212 4672 
Q 1544 4750 1819 4750 
Q 2544 4750 2975 4387 
Q 3406 4025 3406 3419 
Q 3406 3131 3298 2873 
Q 3191 2616 2906 2266 
Q 2828 2175 2409 1742 
Q 1991 1309 1228 531 
z
" transform="scale(0.015625)"/>
       </defs>
       <use xlink:href="#DejaVuSans-32"/>
      </g>
     </g>
    </g>
    <g id="xtick_3">
     <g id="line2d_5">
      <path d="M 200.460432 384.48 
L 200.460432 51.84 
" clip-path="url(#p2d6bdae908)" style="fill: none; stroke: #808080; stroke-opacity: 0.5; stroke-width: 0.5; stroke-linecap: square"/>
     </g>
     <g id="line2d_6">
      <g>
       <use xlink:href="#mbaf70f6c4c" x="200.460432" y="384.48" style="stroke: #000000; stroke-width: 0.8"/>
      </g>
     </g>
     <g id="text_3">
      <!-- 4 -->
      <g transform="translate(197.279182 399.078438) scale(0.1 -0.1)">
       <defs>
        <path id="DejaVuSans-34" d="M 2419 4116 
L 825 1625 
L 2419 1625 
L 2419 4116 
z
M 2253 4666 
L 3047 4666 
L 3047 1625 
L 3713 1625 
L 3713 1100 
L 3047 1100 
L 3047 0 
L 2419 0 
L 2419 1100 
L 313 1100 
L 313 1709 
L 2253 4666 
z
" transform="scale(0.015625)"/>
       </defs>
       <use xlink:href="#DejaVuSans-34"/>
      </g>
     </g>
    </g>
    <g id="xtick_4">
     <g id="line2d_7">
      <path d="M 264.690647 384.48 
L 264.690647 51.84 
" clip-path="url(#p2d6bdae908)" style="fill: none; stroke: #808080; stroke-opacity: 0.5; stroke-width: 0.5; stroke-linecap: square"/>
     </g>
     <g id="line2d_8">
      <g>
       <use xlink:href="#mbaf70f6c4c" x="264.690647" y="384.48" style="stroke: #000000; stroke-width: 0.8"/>
      </g>
     </g>
     <g id="text_4">
      <!-- 6 -->
      <g transform="translate(261.509397 399.078438) scale(0.1 -0.1)">
       <defs>
        <path id="DejaVuSans-36" d="M 2113 2584 
Q 1688 2584 1439 2293 
Q 1191 2003 1191 1497 
Q 1191 994 1439 701 
Q 1688 409 2113 409 
Q 2538 409 2786 701 
Q 3034 994 3034 1497 
Q 3034 2003 2786 2293 
Q 2538 2584 2113 2584 
z
M 3366 4563 
L 3366 3988 
Q 3128 4100 2886 4159 
Q 2644 4219 2406 4219 
Q 1781 4219 1451 3797 
Q 1122 3375 1075 2522 
Q 1259 2794 1537 2939 
Q 1816 3084 2150 3084 
Q 2853 3084 3261 2657 
Q 3669 2231 3669 1497 
Q 3669 778 3244 343 
Q 2819 -91 2113 -91 
Q 1303 -91 875 529 
Q 447 1150 447 2328 
Q 447 3434 972 4092 
Q 1497 4750 2381 4750 
Q 2619 4750 2861 4703 
Q 3103 4656 3366 4563 
z
" transform="scale(0.015625)"/>
       </defs>
       <use xlink:href="#DejaVuSans-36"/>
      </g>
     </g>
    </g>
    <g id="xtick_5">
     <g id="line2d_9">
      <path d="M 328.920863 384.48 
L 328.920863 51.84 
" clip-path="url(#p2d6bdae908)" style="fill: none; stroke: #808080; stroke-opacity: 0.5; stroke-width: 0.5; stroke-linecap: square"/>
     </g>
     <g id="line2d_10">
      <g>
       <use xlink:href="#mbaf70f6c4c" x="328.920863" y="384.48" style="stroke: #000000; stroke-width: 0.8"/>
      </g>
     </g>
     <g id="text_5">
      <!-- 8 -->
      <g transform="translate(325.739613 399.078438) scale(0.1 -0.1)">
       <defs>
        <path id="DejaVuSans-38" d="M 2034 2216 
Q 1584 2216 1326 1975 
Q 1069 1734 1069 1313 
Q 1069 891 1326 650 
Q 1584 409 2034 409 
Q 2484 409 2743 651 
Q 3003 894 3003 1313 
Q 3003 1734 2745 1975 
Q 2488 2216 2034 2216 
z
M 1403 2484 
Q 997 2584 770 2862 
Q 544 3141 544 3541 
Q 544 4100 942 4425 
Q 1341 4750 2034 4750 
Q 2731 4750 3128 4425 
Q 3525 4100 3525 3541 
Q 3525 3141 3298 2862 
Q 3072 2584 2669 2484 
Q 3125 2378 3379 2068 
Q 3634 1759 3634 1313 
Q 3634 634 3220 271 
Q 2806 -91 2034 -91 
Q 1263 -91 848 271 
Q 434 634 434 1313 
Q 434 1759 690 2068 
Q 947 2378 1403 2484 
z
M 1172 3481 
Q 1172 3119 1398 2916 
Q 1625 2713 2034 2713 
Q 2441 2713 2670 2916 
Q 2900 3119 2900 3481 
Q 2900 3844 2670 4047 
Q 2441 4250 2034 4250 
Q 1625 4250 1398 4047 
Q 1172 3844 1172 3481 
z
" transform="scale(0.015625)"/>
       </defs>
       <use xlink:href="#DejaVuSans-38"/>
      </g>
     </g>
    </g>
    <g id="xtick_6">
     <g id="line2d_11">
      <path d="M 393.151079 384.48 
L 393.151079 51.84 
" clip-path="url(#p2d6bdae908)" style="fill: none; stroke: #808080; stroke-opacity: 0.5; stroke-width: 0.5; stroke-linecap: square"/>
     </g>
     <g id="line2d_12">
      <g>
       <use xlink:href="#mbaf70f6c4c" x="393.151079" y="384.48" style="stroke: #000000; stroke-width: 0.8"/>
      </g>
     </g>
     <g id="text_6">
      <!-- 10 -->
      <g transform="translate(386.788579 399.078438) scale(0.1 -0.1)">
       <defs>
        <path id="DejaVuSans-31" d="M 794 531 
L 1825 531 
L 1825 4091 
L 703 3866 
L 703 4441 
L 1819 4666 
L 2450 4666 
L 2450 531 
L 3481 531 
L 3481 0 
L 794 0 
L 794 531 
z
" transform="scale(0.015625)"/>
       </defs>
       <use xlink:href="#DejaVuSans-31"/>
       <use xlink:href="#DejaVuSans-30" x="63.623047"/>
      </g>
     </g>
    </g>
    <g id="xtick_7">
     <g id="line2d_13">
      <path d="M 457.381295 384.48 
L 457.381295 51.84 
" clip-path="url(#p2d6bdae908)" style="fill: none; stroke: #808080; stroke-opacity: 0.5; stroke-width: 0.5; stroke-linecap: square"/>
     </g>
     <g id="line2d_14">
      <g>
       <use xlink:href="#mbaf70f6c4c" x="457.381295" y="384.48" style="stroke: #000000; stroke-width: 0.8"/>
      </g>
     </g>
     <g id="text_7">
      <!-- 12 -->
      <g transform="translate(451.018795 399.078438) scale(0.1 -0.1)">
       <use xlink:href="#DejaVuSans-31"/>
       <use xlink:href="#DejaVuSans-32" x="63.623047"/>
      </g>
     </g>
    </g>
    <g id="xtick_8">
     <g id="line2d_15">
      <path d="M 88.057554 384.48 
L 88.057554 51.84 
" clip-path="url(#p2d6bdae908)" style="fill: none; stroke-dasharray: 0.5,0.825; stroke-dashoffset: 0; stroke: #808080; stroke-opacity: 0.5; stroke-width: 0.5"/>
     </g>
     <g id="line2d_16">
      <defs>
       <path id="m0642b1a430" d="M 0 0 
L 0 2 
" style="stroke: #000000; stroke-width: 0.6"/>
      </defs>
      <g>
       <use xlink:href="#m0642b1a430" x="88.057554" y="384.48" style="stroke: #000000; stroke-width: 0.6"/>
      </g>
     </g>
    </g>
    <g id="xtick_9">
     <g id="line2d_17">
      <path d="M 104.115108 384.48 
L 104.115108 51.84 
" clip-path="url(#p2d6bdae908)" style="fill: none; stroke-dasharray: 0.5,0.825; stroke-dashoffset: 0; stroke: #808080; stroke-opacity: 0.5; stroke-width: 0.5"/>
     </g>
     <g id="line2d_18">
      <g>
       <use xlink:href="#m0642b1a430" x="104.115108" y="384.48" style="stroke: #000000; stroke-width: 0.6"/>
      </g>
     </g>
    </g>
    <g id="xtick_10">
     <g id="line2d_19">
      <path d="M 120.172662 384.48 
L 120.172662 51.84 
" clip-path="url(#p2d6bdae908)" style="fill: none; stroke-dasharray: 0.5,0.825; stroke-dashoffset: 0; stroke: #808080; stroke-opacity: 0.5; stroke-width: 0.5"/>
     </g>
     <g id="line2d_20">
      <g>
       <use xlink:href="#m0642b1a430" x="120.172662" y="384.48" style="stroke: #000000; stroke-width: 0.6"/>
      </g>
     </g>
    </g>
    <g id="xtick_11">
     <g id="line2d_21">
      <path d="M 152.28777 384.48 
L 152.28777 51.84 
" clip-path="url(#p2d6bdae908)" style="fill: none; stroke-dasharray: 0.5,0.825; stroke-dashoffset: 0; stroke: #808080; stroke-opacity: 0.5; stroke-width: 0.5"/>
     </g>
     <g id="line2d_22">
      <g>
       <use xlink:href="#m0642b1a430" x="152.28777" y="384.48" style="stroke: #000000; stroke-width: 0.6"/>
      </g>
     </g>
    </g>
    <g id="xtick_12">
     <g id="line2d_23">
      <path d="M 168.345324 384.48 
L 168.345324 51.84 
" clip-path="url(#p2d6bdae908)" style="fill: none; stroke-dasharray: 0.5,0.825; stroke-dashoffset: 0; stroke: #808080; stroke-opacity: 0.5; stroke-width: 0.5"/>
     </g>
     <g id="line2d_24">
      <g>
       <use xlink:href="#m0642b1a430" x="168.345324" y="384.48" style="stroke: #000000; stroke-width: 0.6"/>
      </g>
     </g>
    </g>
    <g id="xtick_13">
     <g id="line2d_25">
      <path d="M 184.402878 384.48 
L 184.402878 51.84 
" clip-path="url(#p2d6bdae908)" style="fill: none; stroke-dasharray: 0.5,0.825; stroke-dashoffset: 0; stroke: #808080; stroke-opacity: 0.5; stroke-width: 0.5"/>
     </g>
     <g id="line2d_26">
      <g>
       <use xlink:href="#m0642b1a430" x="184.402878" y="384.48" style="stroke: #000000; stroke-width: 0.6"/>
      </g>
     </g>
    </g>
    <g id="xtick_14">
     <g id="line2d_27">
      <path d="M 216.517986 384.48 
L 216.517986 51.84 
" clip-path="url(#p2d6bdae908)" style="fill: none; stroke-dasharray: 0.5,0.825; stroke-dashoffset: 0; stroke: #808080; stroke-opacity: 0.5; stroke-width: 0.5"/>
     </g>
     <g id="line2d_28">
      <g>
       <use xlink:href="#m0642b1a430" x="216.517986" y="384.48" style="stroke: #000000; stroke-width: 0.6"/>
      </g>
     </g>
    </g>
    <g id="xtick_15">
     <g id="line2d_29">
      <path d="M 232.57554 384.48 
L 232.57554 51.84 
" clip-path="url(#p2d6bdae908)" style="fill: none; stroke-dasharray: 0.5,0.825; stroke-dashoffset: 0; stroke: #808080; stroke-opacity: 0.5; stroke-width: 0.5"/>
     </g>
     <g id="line2d_30">
      <g>
       <use xlink:href="#m0642b1a430" x="232.57554" y="384.48" style="stroke: #000000; stroke-width: 0.6"/>
      </g>
     </g>
    </g>
    <g id="xtick_16">
     <g id="line2d_31">
      <path d="M 248.633094 384.48 
L 248.633094 51.84 
" clip-path="url(#p2d6bdae908)" style="fill: none; stroke-dasharray: 0.5,0.825; stroke-dashoffset: 0; stroke: #808080; stroke-opacity: 0.5; stroke-width: 0.5"/>
     </g>
     <g id="line2d_32">
      <g>
       <use xlink:href="#m0642b1a430" x="248.633094" y="384.48" style="stroke: #000000; stroke-width: 0.6"/>
      </g>
     </g>
    </g>
    <g id="xtick_17">
     <g id="line2d_33">
      <path d="M 280.748201 384.48 
L 280.748201 51.84 
" clip-path="url(#p2d6bdae908)" style="fill: none; stroke-dasharray: 0.5,0.825; stroke-dashoffset: 0; stroke: #808080; stroke-opacity: 0.5; stroke-width: 0.5"/>
     </g>
     <g id="line2d_34">
      <g>
       <use xlink:href="#m0642b1a430" x="280.748201" y="384.48" style="stroke: #000000; stroke-width: 0.6"/>
      </g>
     </g>
    </g>
    <g id="xtick_18">
     <g id="line2d_35">
      <path d="M 296.805755 384.48 
L 296.805755 51.84 
" clip-path="url(#p2d6bdae908)" style="fill: none; stroke-dasharray: 0.5,0.825; stroke-dashoffset: 0; stroke: #808080; stroke-opacity: 0.5; stroke-width: 0.5"/>
     </g>
     <g id="line2d_36">
      <g>
       <use xlink:href="#m0642b1a430" x="296.805755" y="384.48" style="stroke: #000000; stroke-width: 0.6"/>
      </g>
     </g>
    </g>
    <g id="xtick_19">
     <g id="line2d_37">
      <path d="M 312.863309 384.48 
L 312.863309 51.84 
" clip-path="url(#p2d6bdae908)" style="fill: none; stroke-dasharray: 0.5,0.825; stroke-dashoffset: 0; stroke: #808080; stroke-opacity: 0.5; stroke-width: 0.5"/>
     </g>
     <g id="line2d_38">
      <g>
       <use xlink:href="#m0642b1a430" x="312.863309" y="384.48" style="stroke: #000000; stroke-width: 0.6"/>
      </g>
     </g>
    </g>
    <g id="xtick_20">
     <g id="line2d_39">
      <path d="M 344.978417 384.48 
L 344.978417 51.84 
" clip-path="url(#p2d6bdae908)" style="fill: none; stroke-dasharray: 0.5,0.825; stroke-dashoffset: 0; stroke: #808080; stroke-opacity: 0.5; stroke-width: 0.5"/>
     </g>
     <g id="line2d_40">
      <g>
       <use xlink:href="#m0642b1a430" x="344.978417" y="384.48" style="stroke: #000000; stroke-width: 0.6"/>
      </g>
     </g>
    </g>
    <g id="xtick_21">
     <g id="line2d_41">
      <path d="M 361.035971 384.48 
L 361.035971 51.84 
" clip-path="url(#p2d6bdae908)" style="fill: none; stroke-dasharray: 0.5,0.825; stroke-dashoffset: 0; stroke: #808080; stroke-opacity: 0.5; stroke-width: 0.5"/>
     </g>
     <g id="line2d_42">
      <g>
       <use xlink:href="#m0642b1a430" x="361.035971" y="384.48" style="stroke: #000000; stroke-width: 0.6"/>
      </g>
     </g>
    </g>
    <g id="xtick_22">
     <g id="line2d_43">
      <path d="M 377.093525 384.48 
L 377.093525 51.84 
" clip-path="url(#p2d6bdae908)" style="fill: none; stroke-dasharray: 0.5,0.825; stroke-dashoffset: 0; stroke: #808080; stroke-opacity: 0.5; stroke-width: 0.5"/>
     </g>
     <g id="line2d_44">
      <g>
       <use xlink:href="#m0642b1a430" x="377.093525" y="384.48" style="stroke: #000000; stroke-width: 0.6"/>
      </g>
     </g>
    </g>
    <g id="xtick_23">
     <g id="line2d_45">
      <path d="M 409.208633 384.48 
L 409.208633 51.84 
" clip-path="url(#p2d6bdae908)" style="fill: none; stroke-dasharray: 0.5,0.825; stroke-dashoffset: 0; stroke: #808080; stroke-opacity: 0.5; stroke-width: 0.5"/>
     </g>
     <g id="line2d_46">
      <g>
       <use xlink:href="#m0642b1a430" x="409.208633" y="384.48" style="stroke: #000000; stroke-width: 0.6"/>
      </g>
     </g>
    </g>
    <g id="xtick_24">
     <g id="line2d_47">
      <path d="M 425.266187 384.48 
L 425.266187 51.84 
" clip-path="url(#p2d6bdae908)" style="fill: none; stroke-dasharray: 0.5,0.825; stroke-dashoffset: 0; stroke: #808080; stroke-opacity: 0.5; stroke-width: 0.5"/>
     </g>
     <g id="line2d_48">
      <g>
       <use xlink:href="#m0642b1a430" x="425.266187" y="384.48" style="stroke: #000000; stroke-width: 0.6"/>
      </g>
     </g>
    </g>
    <g id="xtick_25">
     <g id="line2d_49">
      <path d="M 441.323741 384.48 
L 441.323741 51.84 
" clip-path="url(#p2d6bdae908)" style="fill: none; stroke-dasharray: 0.5,0.825; stroke-dashoffset: 0; stroke: #808080; stroke-opacity: 0.5; stroke-width: 0.5"/>
     </g>
     <g id="line2d_50">
      <g>
       <use xlink:href="#m0642b1a430" x="441.323741" y="384.48" style="stroke: #000000; stroke-width: 0.6"/>
      </g>
     </g>
    </g>
    <g id="xtick_26">
     <g id="line2d_51">
      <path d="M 473.438849 384.48 
L 473.438849 51.84 
" clip-path="url(#p2d6bdae908)" style="fill: none; stroke-dasharray: 0.5,0.825; stroke-dashoffset: 0; stroke: #808080; stroke-opacity: 0.5; stroke-width: 0.5"/>
     </g>
     <g id="line2d_52">
      <g>
       <use xlink:href="#m0642b1a430" x="473.438849" y="384.48" style="stroke: #000000; stroke-width: 0.6"/>
      </g>
     </g>
    </g>
    <g id="xtick_27">
     <g id="line2d_53">
      <path d="M 489.496403 384.48 
L 489.496403 51.84 
" clip-path="url(#p2d6bdae908)" style="fill: none; stroke-dasharray: 0.5,0.825; stroke-dashoffset: 0; stroke: #808080; stroke-opacity: 0.5; stroke-width: 0.5"/>
     </g>
     <g id="line2d_54">
      <g>
       <use xlink:href="#m0642b1a430" x="489.496403" y="384.48" style="stroke: #000000; stroke-width: 0.6"/>
      </g>
     </g>
    </g>
    <g id="xtick_28">
     <g id="line2d_55">
      <path d="M 505.553957 384.48 
L 505.553957 51.84 
" clip-path="url(#p2d6bdae908)" style="fill: none; stroke-dasharray: 0.5,0.825; stroke-dashoffset: 0; stroke: #808080; stroke-opacity: 0.5; stroke-width: 0.5"/>
     </g>
     <g id="line2d_56">
      <g>
       <use xlink:href="#m0642b1a430" x="505.553957" y="384.48" style="stroke: #000000; stroke-width: 0.6"/>
      </g>
     </g>
    </g>
    <g id="text_8">
     <!-- Время,с -->
     <g transform="translate(266.081094 415.795938) scale(0.14 -0.14)">
      <defs>
       <path id="DejaVuSans-412" d="M 1259 2228 
L 1259 519 
L 2272 519 
Q 2781 519 3026 730 
Q 3272 941 3272 1375 
Q 3272 1813 3026 2020 
Q 2781 2228 2272 2228 
L 1259 2228 
z
M 1259 4147 
L 1259 2741 
L 2194 2741 
Q 2656 2741 2882 2914 
Q 3109 3088 3109 3444 
Q 3109 3797 2882 3972 
Q 2656 4147 2194 4147 
L 1259 4147 
z
M 628 4666 
L 2241 4666 
Q 2963 4666 3353 4366 
Q 3744 4066 3744 3513 
Q 3744 3084 3544 2831 
Q 3344 2578 2956 2516 
Q 3422 2416 3680 2098 
Q 3938 1781 3938 1306 
Q 3938 681 3513 340 
Q 3088 0 2303 0 
L 628 0 
L 628 4666 
z
" transform="scale(0.015625)"/>
       <path id="DejaVuSans-440" d="M 1159 525 
L 1159 -1331 
L 581 -1331 
L 581 3500 
L 1159 3500 
L 1159 2969 
Q 1341 3281 1617 3432 
Q 1894 3584 2278 3584 
Q 2916 3584 3314 3078 
Q 3713 2572 3713 1747 
Q 3713 922 3314 415 
Q 2916 -91 2278 -91 
Q 1894 -91 1617 61 
Q 1341 213 1159 525 
z
M 3116 1747 
Q 3116 2381 2855 2742 
Q 2594 3103 2138 3103 
Q 1681 3103 1420 2742 
Q 1159 2381 1159 1747 
Q 1159 1113 1420 752 
Q 1681 391 2138 391 
Q 2594 391 2855 752 
Q 3116 1113 3116 1747 
z
" transform="scale(0.015625)"/>
       <path id="DejaVuSans-435" d="M 3597 1894 
L 3597 1613 
L 953 1613 
Q 991 1019 1311 708 
Q 1631 397 2203 397 
Q 2534 397 2845 478 
Q 3156 559 3463 722 
L 3463 178 
Q 3153 47 2828 -22 
Q 2503 -91 2169 -91 
Q 1331 -91 842 396 
Q 353 884 353 1716 
Q 353 2575 817 3079 
Q 1281 3584 2069 3584 
Q 2775 3584 3186 3129 
Q 3597 2675 3597 1894 
z
M 3022 2063 
Q 3016 2534 2758 2815 
Q 2500 3097 2075 3097 
Q 1594 3097 1305 2825 
Q 1016 2553 972 2059 
L 3022 2063 
z
" transform="scale(0.015625)"/>
       <path id="DejaVuSans-43c" d="M 581 3500 
L 1422 3500 
L 2416 1156 
L 3413 3500 
L 4247 3500 
L 4247 0 
L 3669 0 
L 3669 2950 
L 2703 672 
L 2128 672 
L 1159 2950 
L 1159 0 
L 581 0 
L 581 3500 
z
" transform="scale(0.015625)"/>
       <path id="DejaVuSans-44f" d="M 1181 2491 
Q 1181 2231 1381 2084 
Q 1581 1938 1953 1938 
L 2728 1938 
L 2728 3041 
L 1953 3041 
Q 1581 3041 1381 2897 
Q 1181 2753 1181 2491 
z
M 363 0 
L 1431 1534 
Q 1069 1616 828 1830 
Q 588 2044 588 2491 
Q 588 2997 923 3248 
Q 1259 3500 1938 3500 
L 3306 3500 
L 3306 0 
L 2728 0 
L 2728 1478 
L 2013 1478 
L 981 0 
L 363 0 
z
" transform="scale(0.015625)"/>
       <path id="DejaVuSans-2c" d="M 750 794 
L 1409 794 
L 1409 256 
L 897 -744 
L 494 -744 
L 750 256 
L 750 794 
z
" transform="scale(0.015625)"/>
       <path id="DejaVuSans-441" d="M 3122 3366 
L 3122 2828 
Q 2878 2963 2633 3030 
Q 2388 3097 2138 3097 
Q 1578 3097 1268 2742 
Q 959 2388 959 1747 
Q 959 1106 1268 751 
Q 1578 397 2138 397 
Q 2388 397 2633 464 
Q 2878 531 3122 666 
L 3122 134 
Q 2881 22 2623 -34 
Q 2366 -91 2075 -91 
Q 1284 -91 818 406 
Q 353 903 353 1747 
Q 353 2603 823 3093 
Q 1294 3584 2113 3584 
Q 2378 3584 2631 3529 
Q 2884 3475 3122 3366 
z
" transform="scale(0.015625)"/>
      </defs>
      <use xlink:href="#DejaVuSans-412"/>
      <use xlink:href="#DejaVuSans-440" x="68.603516"/>
      <use xlink:href="#DejaVuSans-435" x="132.080078"/>
      <use xlink:href="#DejaVuSans-43c" x="193.603516"/>
      <use xlink:href="#DejaVuSans-44f" x="269.042969"/>
      <use xlink:href="#DejaVuSans-2c" x="329.199219"/>
      <use xlink:href="#DejaVuSans-441" x="360.986328"/>
     </g>
    </g>
   </g>
   <g id="matplotlib.axis_2">
    <g id="ytick_1">
     <g id="line2d_57">
      <path d="M 72 333.743581 
L 518.4 333.743581 
" clip-path="url(#p2d6bdae908)" style="fill: none; stroke: #808080; stroke-opacity: 0.5; stroke-width: 0.5; stroke-linecap: square"/>
     </g>
     <g id="line2d_58">
      <defs>
       <path id="m3b9bddea8b" d="M 0 0 
L -3.5 0 
" style="stroke: #000000; stroke-width: 0.8"/>
      </defs>
      <g>
       <use xlink:href="#m3b9bddea8b" x="72" y="333.743581" style="stroke: #000000; stroke-width: 0.8"/>
      </g>
     </g>
     <g id="text_9">
      <!-- 0.5 -->
      <g transform="translate(49.096875 337.5428) scale(0.1 -0.1)">
       <defs>
        <path id="DejaVuSans-2e" d="M 684 794 
L 1344 794 
L 1344 0 
L 684 0 
L 684 794 
z
" transform="scale(0.015625)"/>
        <path id="DejaVuSans-35" d="M 691 4666 
L 3169 4666 
L 3169 4134 
L 1269 4134 
L 1269 2991 
Q 1406 3038 1543 3061 
Q 1681 3084 1819 3084 
Q 2600 3084 3056 2656 
Q 3513 2228 3513 1497 
Q 3513 744 3044 326 
Q 2575 -91 1722 -91 
Q 1428 -91 1123 -41 
Q 819 9 494 109 
L 494 744 
Q 775 591 1075 516 
Q 1375 441 1709 441 
Q 2250 441 2565 725 
Q 2881 1009 2881 1497 
Q 2881 1984 2565 2268 
Q 2250 2553 1709 2553 
Q 1456 2553 1204 2497 
Q 953 2441 691 2322 
L 691 4666 
z
" transform="scale(0.015625)"/>
       </defs>
       <use xlink:href="#DejaVuSans-30"/>
       <use xlink:href="#DejaVuSans-2e" x="63.623047"/>
       <use xlink:href="#DejaVuSans-35" x="95.410156"/>
      </g>
     </g>
    </g>
    <g id="ytick_2">
     <g id="line2d_59">
      <path d="M 72 281.865852 
L 518.4 281.865852 
" clip-path="url(#p2d6bdae908)" style="fill: none; stroke: #808080; stroke-opacity: 0.5; stroke-width: 0.5; stroke-linecap: square"/>
     </g>
     <g id="line2d_60">
      <g>
       <use xlink:href="#m3b9bddea8b" x="72" y="281.865852" style="stroke: #000000; stroke-width: 0.8"/>
      </g>
     </g>
     <g id="text_10">
      <!-- 1.0 -->
      <g transform="translate(49.096875 285.66507) scale(0.1 -0.1)">
       <use xlink:href="#DejaVuSans-31"/>
       <use xlink:href="#DejaVuSans-2e" x="63.623047"/>
       <use xlink:href="#DejaVuSans-30" x="95.410156"/>
      </g>
     </g>
    </g>
    <g id="ytick_3">
     <g id="line2d_61">
      <path d="M 72 229.988122 
L 518.4 229.988122 
" clip-path="url(#p2d6bdae908)" style="fill: none; stroke: #808080; stroke-opacity: 0.5; stroke-width: 0.5; stroke-linecap: square"/>
     </g>
     <g id="line2d_62">
      <g>
       <use xlink:href="#m3b9bddea8b" x="72" y="229.988122" style="stroke: #000000; stroke-width: 0.8"/>
      </g>
     </g>
     <g id="text_11">
      <!-- 1.5 -->
      <g transform="translate(49.096875 233.787341) scale(0.1 -0.1)">
       <use xlink:href="#DejaVuSans-31"/>
       <use xlink:href="#DejaVuSans-2e" x="63.623047"/>
       <use xlink:href="#DejaVuSans-35" x="95.410156"/>
      </g>
     </g>
    </g>
    <g id="ytick_4">
     <g id="line2d_63">
      <path d="M 72 178.110393 
L 518.4 178.110393 
" clip-path="url(#p2d6bdae908)" style="fill: none; stroke: #808080; stroke-opacity: 0.5; stroke-width: 0.5; stroke-linecap: square"/>
     </g>
     <g id="line2d_64">
      <g>
       <use xlink:href="#m3b9bddea8b" x="72" y="178.110393" style="stroke: #000000; stroke-width: 0.8"/>
      </g>
     </g>
     <g id="text_12">
      <!-- 2.0 -->
      <g transform="translate(49.096875 181.909612) scale(0.1 -0.1)">
       <use xlink:href="#DejaVuSans-32"/>
       <use xlink:href="#DejaVuSans-2e" x="63.623047"/>
       <use xlink:href="#DejaVuSans-30" x="95.410156"/>
      </g>
     </g>
    </g>
    <g id="ytick_5">
     <g id="line2d_65">
      <path d="M 72 126.232664 
L 518.4 126.232664 
" clip-path="url(#p2d6bdae908)" style="fill: none; stroke: #808080; stroke-opacity: 0.5; stroke-width: 0.5; stroke-linecap: square"/>
     </g>
     <g id="line2d_66">
      <g>
       <use xlink:href="#m3b9bddea8b" x="72" y="126.232664" style="stroke: #000000; stroke-width: 0.8"/>
      </g>
     </g>
     <g id="text_13">
      <!-- 2.5 -->
      <g transform="translate(49.096875 130.031883) scale(0.1 -0.1)">
       <use xlink:href="#DejaVuSans-32"/>
       <use xlink:href="#DejaVuSans-2e" x="63.623047"/>
       <use xlink:href="#DejaVuSans-35" x="95.410156"/>
      </g>
     </g>
    </g>
    <g id="ytick_6">
     <g id="line2d_67">
      <path d="M 72 74.354934 
L 518.4 74.354934 
" clip-path="url(#p2d6bdae908)" style="fill: none; stroke: #808080; stroke-opacity: 0.5; stroke-width: 0.5; stroke-linecap: square"/>
     </g>
     <g id="line2d_68">
      <g>
       <use xlink:href="#m3b9bddea8b" x="72" y="74.354934" style="stroke: #000000; stroke-width: 0.8"/>
      </g>
     </g>
     <g id="text_14">
      <!-- 3.0 -->
      <g transform="translate(49.096875 78.154153) scale(0.1 -0.1)">
       <defs>
        <path id="DejaVuSans-33" d="M 2597 2516 
Q 3050 2419 3304 2112 
Q 3559 1806 3559 1356 
Q 3559 666 3084 287 
Q 2609 -91 1734 -91 
Q 1441 -91 1130 -33 
Q 819 25 488 141 
L 488 750 
Q 750 597 1062 519 
Q 1375 441 1716 441 
Q 2309 441 2620 675 
Q 2931 909 2931 1356 
Q 2931 1769 2642 2001 
Q 2353 2234 1838 2234 
L 1294 2234 
L 1294 2753 
L 1863 2753 
Q 2328 2753 2575 2939 
Q 2822 3125 2822 3475 
Q 2822 3834 2567 4026 
Q 2313 4219 1838 4219 
Q 1578 4219 1281 4162 
Q 984 4106 628 3988 
L 628 4550 
Q 988 4650 1302 4700 
Q 1616 4750 1894 4750 
Q 2613 4750 3031 4423 
Q 3450 4097 3450 3541 
Q 3450 3153 3228 2886 
Q 3006 2619 2597 2516 
z
" transform="scale(0.015625)"/>
       </defs>
       <use xlink:href="#DejaVuSans-33"/>
       <use xlink:href="#DejaVuSans-2e" x="63.623047"/>
       <use xlink:href="#DejaVuSans-30" x="95.410156"/>
      </g>
     </g>
    </g>
    <g id="ytick_7">
     <g id="line2d_69">
      <path d="M 72 375.245764 
L 518.4 375.245764 
" clip-path="url(#p2d6bdae908)" style="fill: none; stroke-dasharray: 0.5,0.825; stroke-dashoffset: 0; stroke: #808080; stroke-opacity: 0.5; stroke-width: 0.5"/>
     </g>
     <g id="line2d_70">
      <defs>
       <path id="m8c1ba3b8bc" d="M 0 0 
L -2 0 
" style="stroke: #000000; stroke-width: 0.6"/>
      </defs>
      <g>
       <use xlink:href="#m8c1ba3b8bc" x="72" y="375.245764" style="stroke: #000000; stroke-width: 0.6"/>
      </g>
     </g>
    </g>
    <g id="ytick_8">
     <g id="line2d_71">
      <path d="M 72 364.870218 
L 518.4 364.870218 
" clip-path="url(#p2d6bdae908)" style="fill: none; stroke-dasharray: 0.5,0.825; stroke-dashoffset: 0; stroke: #808080; stroke-opacity: 0.5; stroke-width: 0.5"/>
     </g>
     <g id="line2d_72">
      <g>
       <use xlink:href="#m8c1ba3b8bc" x="72" y="364.870218" style="stroke: #000000; stroke-width: 0.6"/>
      </g>
     </g>
    </g>
    <g id="ytick_9">
     <g id="line2d_73">
      <path d="M 72 354.494672 
L 518.4 354.494672 
" clip-path="url(#p2d6bdae908)" style="fill: none; stroke-dasharray: 0.5,0.825; stroke-dashoffset: 0; stroke: #808080; stroke-opacity: 0.5; stroke-width: 0.5"/>
     </g>
     <g id="line2d_74">
      <g>
       <use xlink:href="#m8c1ba3b8bc" x="72" y="354.494672" style="stroke: #000000; stroke-width: 0.6"/>
      </g>
     </g>
    </g>
    <g id="ytick_10">
     <g id="line2d_75">
      <path d="M 72 344.119127 
L 518.4 344.119127 
" clip-path="url(#p2d6bdae908)" style="fill: none; stroke-dasharray: 0.5,0.825; stroke-dashoffset: 0; stroke: #808080; stroke-opacity: 0.5; stroke-width: 0.5"/>
     </g>
     <g id="line2d_76">
      <g>
       <use xlink:href="#m8c1ba3b8bc" x="72" y="344.119127" style="stroke: #000000; stroke-width: 0.6"/>
      </g>
     </g>
    </g>
    <g id="ytick_11">
     <g id="line2d_77">
      <path d="M 72 323.368035 
L 518.4 323.368035 
" clip-path="url(#p2d6bdae908)" style="fill: none; stroke-dasharray: 0.5,0.825; stroke-dashoffset: 0; stroke: #808080; stroke-opacity: 0.5; stroke-width: 0.5"/>
     </g>
     <g id="line2d_78">
      <g>
       <use xlink:href="#m8c1ba3b8bc" x="72" y="323.368035" style="stroke: #000000; stroke-width: 0.6"/>
      </g>
     </g>
    </g>
    <g id="ytick_12">
     <g id="line2d_79">
      <path d="M 72 312.992489 
L 518.4 312.992489 
" clip-path="url(#p2d6bdae908)" style="fill: none; stroke-dasharray: 0.5,0.825; stroke-dashoffset: 0; stroke: #808080; stroke-opacity: 0.5; stroke-width: 0.5"/>
     </g>
     <g id="line2d_80">
      <g>
       <use xlink:href="#m8c1ba3b8bc" x="72" y="312.992489" style="stroke: #000000; stroke-width: 0.6"/>
      </g>
     </g>
    </g>
    <g id="ytick_13">
     <g id="line2d_81">
      <path d="M 72 302.616943 
L 518.4 302.616943 
" clip-path="url(#p2d6bdae908)" style="fill: none; stroke-dasharray: 0.5,0.825; stroke-dashoffset: 0; stroke: #808080; stroke-opacity: 0.5; stroke-width: 0.5"/>
     </g>
     <g id="line2d_82">
      <g>
       <use xlink:href="#m8c1ba3b8bc" x="72" y="302.616943" style="stroke: #000000; stroke-width: 0.6"/>
      </g>
     </g>
    </g>
    <g id="ytick_14">
     <g id="line2d_83">
      <path d="M 72 292.241397 
L 518.4 292.241397 
" clip-path="url(#p2d6bdae908)" style="fill: none; stroke-dasharray: 0.5,0.825; stroke-dashoffset: 0; stroke: #808080; stroke-opacity: 0.5; stroke-width: 0.5"/>
     </g>
     <g id="line2d_84">
      <g>
       <use xlink:href="#m8c1ba3b8bc" x="72" y="292.241397" style="stroke: #000000; stroke-width: 0.6"/>
      </g>
     </g>
    </g>
    <g id="ytick_15">
     <g id="line2d_85">
      <path d="M 72 271.490306 
L 518.4 271.490306 
" clip-path="url(#p2d6bdae908)" style="fill: none; stroke-dasharray: 0.5,0.825; stroke-dashoffset: 0; stroke: #808080; stroke-opacity: 0.5; stroke-width: 0.5"/>
     </g>
     <g id="line2d_86">
      <g>
       <use xlink:href="#m8c1ba3b8bc" x="72" y="271.490306" style="stroke: #000000; stroke-width: 0.6"/>
      </g>
     </g>
    </g>
    <g id="ytick_16">
     <g id="line2d_87">
      <path d="M 72 261.11476 
L 518.4 261.11476 
" clip-path="url(#p2d6bdae908)" style="fill: none; stroke-dasharray: 0.5,0.825; stroke-dashoffset: 0; stroke: #808080; stroke-opacity: 0.5; stroke-width: 0.5"/>
     </g>
     <g id="line2d_88">
      <g>
       <use xlink:href="#m8c1ba3b8bc" x="72" y="261.11476" style="stroke: #000000; stroke-width: 0.6"/>
      </g>
     </g>
    </g>
    <g id="ytick_17">
     <g id="line2d_89">
      <path d="M 72 250.739214 
L 518.4 250.739214 
" clip-path="url(#p2d6bdae908)" style="fill: none; stroke-dasharray: 0.5,0.825; stroke-dashoffset: 0; stroke: #808080; stroke-opacity: 0.5; stroke-width: 0.5"/>
     </g>
     <g id="line2d_90">
      <g>
       <use xlink:href="#m8c1ba3b8bc" x="72" y="250.739214" style="stroke: #000000; stroke-width: 0.6"/>
      </g>
     </g>
    </g>
    <g id="ytick_18">
     <g id="line2d_91">
      <path d="M 72 240.363668 
L 518.4 240.363668 
" clip-path="url(#p2d6bdae908)" style="fill: none; stroke-dasharray: 0.5,0.825; stroke-dashoffset: 0; stroke: #808080; stroke-opacity: 0.5; stroke-width: 0.5"/>
     </g>
     <g id="line2d_92">
      <g>
       <use xlink:href="#m8c1ba3b8bc" x="72" y="240.363668" style="stroke: #000000; stroke-width: 0.6"/>
      </g>
     </g>
    </g>
    <g id="ytick_19">
     <g id="line2d_93">
      <path d="M 72 219.612576 
L 518.4 219.612576 
" clip-path="url(#p2d6bdae908)" style="fill: none; stroke-dasharray: 0.5,0.825; stroke-dashoffset: 0; stroke: #808080; stroke-opacity: 0.5; stroke-width: 0.5"/>
     </g>
     <g id="line2d_94">
      <g>
       <use xlink:href="#m8c1ba3b8bc" x="72" y="219.612576" style="stroke: #000000; stroke-width: 0.6"/>
      </g>
     </g>
    </g>
    <g id="ytick_20">
     <g id="line2d_95">
      <path d="M 72 209.237031 
L 518.4 209.237031 
" clip-path="url(#p2d6bdae908)" style="fill: none; stroke-dasharray: 0.5,0.825; stroke-dashoffset: 0; stroke: #808080; stroke-opacity: 0.5; stroke-width: 0.5"/>
     </g>
     <g id="line2d_96">
      <g>
       <use xlink:href="#m8c1ba3b8bc" x="72" y="209.237031" style="stroke: #000000; stroke-width: 0.6"/>
      </g>
     </g>
    </g>
    <g id="ytick_21">
     <g id="line2d_97">
      <path d="M 72 198.861485 
L 518.4 198.861485 
" clip-path="url(#p2d6bdae908)" style="fill: none; stroke-dasharray: 0.5,0.825; stroke-dashoffset: 0; stroke: #808080; stroke-opacity: 0.5; stroke-width: 0.5"/>
     </g>
     <g id="line2d_98">
      <g>
       <use xlink:href="#m8c1ba3b8bc" x="72" y="198.861485" style="stroke: #000000; stroke-width: 0.6"/>
      </g>
     </g>
    </g>
    <g id="ytick_22">
     <g id="line2d_99">
      <path d="M 72 188.485939 
L 518.4 188.485939 
" clip-path="url(#p2d6bdae908)" style="fill: none; stroke-dasharray: 0.5,0.825; stroke-dashoffset: 0; stroke: #808080; stroke-opacity: 0.5; stroke-width: 0.5"/>
     </g>
     <g id="line2d_100">
      <g>
       <use xlink:href="#m8c1ba3b8bc" x="72" y="188.485939" style="stroke: #000000; stroke-width: 0.6"/>
      </g>
     </g>
    </g>
    <g id="ytick_23">
     <g id="line2d_101">
      <path d="M 72 167.734847 
L 518.4 167.734847 
" clip-path="url(#p2d6bdae908)" style="fill: none; stroke-dasharray: 0.5,0.825; stroke-dashoffset: 0; stroke: #808080; stroke-opacity: 0.5; stroke-width: 0.5"/>
     </g>
     <g id="line2d_102">
      <g>
       <use xlink:href="#m8c1ba3b8bc" x="72" y="167.734847" style="stroke: #000000; stroke-width: 0.6"/>
      </g>
     </g>
    </g>
    <g id="ytick_24">
     <g id="line2d_103">
      <path d="M 72 157.359301 
L 518.4 157.359301 
" clip-path="url(#p2d6bdae908)" style="fill: none; stroke-dasharray: 0.5,0.825; stroke-dashoffset: 0; stroke: #808080; stroke-opacity: 0.5; stroke-width: 0.5"/>
     </g>
     <g id="line2d_104">
      <g>
       <use xlink:href="#m8c1ba3b8bc" x="72" y="157.359301" style="stroke: #000000; stroke-width: 0.6"/>
      </g>
     </g>
    </g>
    <g id="ytick_25">
     <g id="line2d_105">
      <path d="M 72 146.983755 
L 518.4 146.983755 
" clip-path="url(#p2d6bdae908)" style="fill: none; stroke-dasharray: 0.5,0.825; stroke-dashoffset: 0; stroke: #808080; stroke-opacity: 0.5; stroke-width: 0.5"/>
     </g>
     <g id="line2d_106">
      <g>
       <use xlink:href="#m8c1ba3b8bc" x="72" y="146.983755" style="stroke: #000000; stroke-width: 0.6"/>
      </g>
     </g>
    </g>
    <g id="ytick_26">
     <g id="line2d_107">
      <path d="M 72 136.60821 
L 518.4 136.60821 
" clip-path="url(#p2d6bdae908)" style="fill: none; stroke-dasharray: 0.5,0.825; stroke-dashoffset: 0; stroke: #808080; stroke-opacity: 0.5; stroke-width: 0.5"/>
     </g>
     <g id="line2d_108">
      <g>
       <use xlink:href="#m8c1ba3b8bc" x="72" y="136.60821" style="stroke: #000000; stroke-width: 0.6"/>
      </g>
     </g>
    </g>
    <g id="ytick_27">
     <g id="line2d_109">
      <path d="M 72 115.857118 
L 518.4 115.857118 
" clip-path="url(#p2d6bdae908)" style="fill: none; stroke-dasharray: 0.5,0.825; stroke-dashoffset: 0; stroke: #808080; stroke-opacity: 0.5; stroke-width: 0.5"/>
     </g>
     <g id="line2d_110">
      <g>
       <use xlink:href="#m8c1ba3b8bc" x="72" y="115.857118" style="stroke: #000000; stroke-width: 0.6"/>
      </g>
     </g>
    </g>
    <g id="ytick_28">
     <g id="line2d_111">
      <path d="M 72 105.481572 
L 518.4 105.481572 
" clip-path="url(#p2d6bdae908)" style="fill: none; stroke-dasharray: 0.5,0.825; stroke-dashoffset: 0; stroke: #808080; stroke-opacity: 0.5; stroke-width: 0.5"/>
     </g>
     <g id="line2d_112">
      <g>
       <use xlink:href="#m8c1ba3b8bc" x="72" y="105.481572" style="stroke: #000000; stroke-width: 0.6"/>
      </g>
     </g>
    </g>
    <g id="ytick_29">
     <g id="line2d_113">
      <path d="M 72 95.106026 
L 518.4 95.106026 
" clip-path="url(#p2d6bdae908)" style="fill: none; stroke-dasharray: 0.5,0.825; stroke-dashoffset: 0; stroke: #808080; stroke-opacity: 0.5; stroke-width: 0.5"/>
     </g>
     <g id="line2d_114">
      <g>
       <use xlink:href="#m8c1ba3b8bc" x="72" y="95.106026" style="stroke: #000000; stroke-width: 0.6"/>
      </g>
     </g>
    </g>
    <g id="ytick_30">
     <g id="line2d_115">
      <path d="M 72 84.73048 
L 518.4 84.73048 
" clip-path="url(#p2d6bdae908)" style="fill: none; stroke-dasharray: 0.5,0.825; stroke-dashoffset: 0; stroke: #808080; stroke-opacity: 0.5; stroke-width: 0.5"/>
     </g>
     <g id="line2d_116">
      <g>
       <use xlink:href="#m8c1ba3b8bc" x="72" y="84.73048" style="stroke: #000000; stroke-width: 0.6"/>
      </g>
     </g>
    </g>
    <g id="ytick_31">
     <g id="line2d_117">
      <path d="M 72 63.979389 
L 518.4 63.979389 
" clip-path="url(#p2d6bdae908)" style="fill: none; stroke-dasharray: 0.5,0.825; stroke-dashoffset: 0; stroke: #808080; stroke-opacity: 0.5; stroke-width: 0.5"/>
     </g>
     <g id="line2d_118">
      <g>
       <use xlink:href="#m8c1ba3b8bc" x="72" y="63.979389" style="stroke: #000000; stroke-width: 0.6"/>
      </g>
     </g>
    </g>
    <g id="ytick_32">
     <g id="line2d_119">
      <path d="M 72 53.603843 
L 518.4 53.603843 
" clip-path="url(#p2d6bdae908)" style="fill: none; stroke-dasharray: 0.5,0.825; stroke-dashoffset: 0; stroke: #808080; stroke-opacity: 0.5; stroke-width: 0.5"/>
     </g>
     <g id="line2d_120">
      <g>
       <use xlink:href="#m8c1ba3b8bc" x="72" y="53.603843" style="stroke: #000000; stroke-width: 0.6"/>
      </g>
     </g>
    </g>
    <g id="text_15">
     <!-- Напряжение,В -->
     <g transform="translate(42.185312 272.018438) rotate(-90) scale(0.14 -0.14)">
      <defs>
       <path id="DejaVuSans-41d" d="M 628 4666 
L 1259 4666 
L 1259 2753 
L 3553 2753 
L 3553 4666 
L 4184 4666 
L 4184 0 
L 3553 0 
L 3553 2222 
L 1259 2222 
L 1259 0 
L 628 0 
L 628 4666 
z
" transform="scale(0.015625)"/>
       <path id="DejaVuSans-430" d="M 2194 1759 
Q 1497 1759 1228 1600 
Q 959 1441 959 1056 
Q 959 750 1161 570 
Q 1363 391 1709 391 
Q 2188 391 2477 730 
Q 2766 1069 2766 1631 
L 2766 1759 
L 2194 1759 
z
M 3341 1997 
L 3341 0 
L 2766 0 
L 2766 531 
Q 2569 213 2275 61 
Q 1981 -91 1556 -91 
Q 1019 -91 701 211 
Q 384 513 384 1019 
Q 384 1609 779 1909 
Q 1175 2209 1959 2209 
L 2766 2209 
L 2766 2266 
Q 2766 2663 2505 2880 
Q 2244 3097 1772 3097 
Q 1472 3097 1187 3025 
Q 903 2953 641 2809 
L 641 3341 
Q 956 3463 1253 3523 
Q 1550 3584 1831 3584 
Q 2591 3584 2966 3190 
Q 3341 2797 3341 1997 
z
" transform="scale(0.015625)"/>
       <path id="DejaVuSans-43f" d="M 3603 3500 
L 3603 0 
L 3025 0 
L 3025 3041 
L 1159 3041 
L 1159 0 
L 581 0 
L 581 3500 
L 3603 3500 
z
" transform="scale(0.015625)"/>
       <path id="DejaVuSans-436" d="M 2597 3500 
L 3169 3500 
L 3169 1856 
L 4697 3500 
L 5366 3500 
L 4109 2153 
L 5547 0 
L 4931 0 
L 3753 1769 
L 3169 1141 
L 3169 0 
L 2597 0 
L 2597 1141 
L 2013 1769 
L 834 0 
L 219 0 
L 1656 2153 
L 400 3500 
L 1069 3500 
L 2597 1856 
L 2597 3500 
z
" transform="scale(0.015625)"/>
       <path id="DejaVuSans-43d" d="M 581 3500 
L 1159 3500 
L 1159 2072 
L 3025 2072 
L 3025 3500 
L 3603 3500 
L 3603 0 
L 3025 0 
L 3025 1613 
L 1159 1613 
L 1159 0 
L 581 0 
L 581 3500 
z
" transform="scale(0.015625)"/>
       <path id="DejaVuSans-438" d="M 3578 3500 
L 3578 0 
L 3006 0 
L 3006 2809 
L 1319 0 
L 581 0 
L 581 3500 
L 1153 3500 
L 1153 697 
L 2838 3500 
L 3578 3500 
z
" transform="scale(0.015625)"/>
      </defs>
      <use xlink:href="#DejaVuSans-41d"/>
      <use xlink:href="#DejaVuSans-430" x="75.195312"/>
      <use xlink:href="#DejaVuSans-43f" x="136.474609"/>
      <use xlink:href="#DejaVuSans-440" x="201.855469"/>
      <use xlink:href="#DejaVuSans-44f" x="265.332031"/>
      <use xlink:href="#DejaVuSans-436" x="325.488281"/>
      <use xlink:href="#DejaVuSans-435" x="415.576172"/>
      <use xlink:href="#DejaVuSans-43d" x="477.099609"/>
      <use xlink:href="#DejaVuSans-438" x="542.480469"/>
      <use xlink:href="#DejaVuSans-435" x="607.470703"/>
      <use xlink:href="#DejaVuSans-2c" x="668.994141"/>
      <use xlink:href="#DejaVuSans-412" x="700.78125"/>
     </g>
    </g>
   </g>
   <g id="line2d_121">
    <path d="M 72 384.48 
L 72.479757 379.91476 
L 73.91903 373.0669 
L 74.398787 368.501659 
L 75.358302 363.936419 
L 75.83806 359.371179 
L 76.317817 359.371179 
L 76.797575 354.805939 
L 77.277332 354.805939 
L 77.75709 350.240699 
L 78.236847 350.240699 
L 78.716605 343.392838 
L 84.953452 313.718777 
L 85.433209 313.718777 
L 85.912966 309.153537 
L 87.831996 300.023057 
L 88.311754 300.023057 
L 88.791511 295.457817 
L 89.271269 295.457817 
L 93.109328 277.196856 
L 93.589086 277.196856 
L 95.508116 268.066376 
L 95.987873 268.066376 
L 97.906903 258.935895 
L 98.386661 258.935895 
L 99.346176 254.370655 
L 99.825933 254.370655 
L 100.785448 249.805415 
L 101.265205 249.805415 
L 102.22472 245.240175 
L 102.704478 245.240175 
L 103.663993 240.674934 
L 104.623508 240.674934 
L 105.103265 236.109694 
L 105.583023 236.109694 
L 106.06278 233.827074 
L 106.542537 233.827074 
L 107.502052 229.261834 
L 107.98181 229.261834 
L 108.461567 226.979214 
L 108.941325 226.979214 
L 109.90084 222.413974 
L 110.860355 222.413974 
L 111.81987 217.848734 
L 112.779385 217.848734 
L 113.738899 213.283493 
L 114.218657 213.283493 
L 114.698414 211.000873 
L 115.178172 211.000873 
L 115.657929 208.718253 
L 116.137687 208.718253 
L 116.617444 206.435633 
L 117.097202 206.435633 
L 117.576959 204.153013 
L 119.016232 204.153013 
L 119.495989 199.587773 
L 120.455504 199.587773 
L 120.935261 197.305153 
L 121.415019 197.305153 
L 121.894776 195.022533 
L 122.854291 195.022533 
L 123.334049 192.739913 
L 123.813806 192.739913 
L 124.293564 190.457293 
L 124.773321 190.457293 
L 125.253079 188.174672 
L 126.692351 188.174672 
L 127.651866 183.609432 
L 128.611381 183.609432 
L 129.091138 181.326812 
L 130.050653 181.326812 
L 130.530411 179.044192 
L 131.010168 179.044192 
L 131.489926 176.761572 
L 132.929198 176.761572 
L 133.408956 174.478952 
L 133.888713 174.478952 
L 134.36847 172.196332 
L 135.327985 172.196332 
L 135.807743 169.913712 
L 137.247015 169.913712 
L 138.20653 165.348472 
L 141.085075 165.348472 
L 142.04459 160.783231 
L 143.96362 160.783231 
L 144.443377 158.500611 
L 145.88265 158.500611 
L 146.362407 156.217991 
L 147.321922 156.217991 
L 147.801679 153.935371 
L 148.761194 153.935371 
L 149.240952 151.652751 
L 151.159982 151.652751 
L 151.639739 149.370131 
L 153.558769 149.370131 
L 154.038527 147.087511 
L 155.957556 147.087511 
L 156.437314 144.804891 
L 158.356344 144.804891 
L 158.836101 142.522271 
L 159.795616 142.522271 
L 160.275374 140.239651 
L 160.755131 142.522271 
L 161.234888 140.239651 
L 162.674161 140.239651 
L 163.153918 137.957031 
L 166.512221 137.957031 
L 166.991978 135.67441 
L 169.390765 135.67441 
L 169.870523 133.39179 
L 172.26931 133.39179 
L 172.749068 131.10917 
L 174.668097 131.10917 
L 175.147855 128.82655 
L 180.425187 128.82655 
L 180.904945 126.54393 
L 184.743004 126.54393 
L 185.222762 124.26131 
L 185.702519 126.54393 
L 186.182277 124.26131 
L 188.581064 124.26131 
L 189.060821 121.97869 
L 189.540579 124.26131 
L 190.020336 121.97869 
L 194.338154 121.97869 
L 194.817911 119.69607 
L 199.135728 119.69607 
L 199.615486 117.41345 
L 203.933303 117.41345 
L 204.41306 115.13083 
L 204.892818 117.41345 
L 205.372575 117.41345 
L 205.852333 115.13083 
L 210.17015 115.13083 
L 210.649907 112.84821 
L 211.129665 115.13083 
L 211.609422 115.13083 
L 212.08918 112.84821 
L 212.568937 115.13083 
L 213.048695 115.13083 
L 213.528452 112.84821 
L 217.366512 112.84821 
L 217.846269 110.56559 
L 218.326027 112.84821 
L 218.805784 112.84821 
L 219.285542 110.56559 
L 219.765299 110.56559 
L 220.245057 112.84821 
L 221.684329 112.84821 
L 222.164087 110.56559 
L 231.279478 110.56559 
L 231.759236 108.282969 
L 232.238993 110.56559 
L 232.718751 108.282969 
L 243.273415 108.282969 
L 243.753172 106.000349 
L 244.23293 106.000349 
L 244.712687 108.282969 
L 245.192445 108.282969 
L 245.672202 106.000349 
L 246.15196 106.000349 
L 246.631717 108.282969 
L 247.111475 106.000349 
L 255.267352 106.000349 
L 255.747109 103.717729 
L 256.226867 108.282969 
L 256.706624 110.56559 
L 257.186381 110.56559 
L 257.666139 115.13083 
L 258.625654 119.69607 
L 259.105411 124.26131 
L 259.585169 124.26131 
L 260.064926 128.82655 
L 260.544684 128.82655 
L 261.024441 133.39179 
L 261.983956 137.957031 
L 262.463714 137.957031 
L 262.943471 142.522271 
L 263.423229 142.522271 
L 268.220803 165.348472 
L 268.700561 165.348472 
L 271.099348 176.761572 
L 271.579105 176.761572 
L 272.058863 181.326812 
L 272.53862 181.326812 
L 273.018378 183.609432 
L 273.498135 183.609432 
L 275.896923 195.022533 
L 276.37668 195.022533 
L 278.29571 204.153013 
L 278.775467 204.153013 
L 279.734982 208.718253 
L 280.21474 208.718253 
L 280.694497 211.000873 
L 281.174255 211.000873 
L 282.613527 217.848734 
L 283.093285 217.848734 
L 283.573042 220.131354 
L 284.052799 220.131354 
L 285.012314 224.696594 
L 285.492072 224.696594 
L 286.451587 229.261834 
L 286.931344 229.261834 
L 287.411102 231.544454 
L 287.890859 231.544454 
L 288.370617 233.827074 
L 288.850374 233.827074 
L 289.330132 236.109694 
L 289.809889 236.109694 
L 290.289647 238.392314 
L 290.769404 238.392314 
L 291.249161 240.674934 
L 291.728919 240.674934 
L 292.208676 242.957555 
L 292.688434 242.957555 
L 293.647949 247.522795 
L 294.607464 247.522795 
L 295.087221 249.805415 
L 295.566979 249.805415 
L 296.046736 252.088035 
L 296.526494 252.088035 
L 297.486009 256.653275 
L 298.445523 256.653275 
L 298.925281 258.935895 
L 299.405038 258.935895 
L 299.884796 261.218515 
L 300.364553 261.218515 
L 300.844311 263.501135 
L 301.324068 263.501135 
L 301.803826 265.783755 
L 302.763341 265.783755 
L 303.243098 268.066376 
L 303.722856 268.066376 
L 304.202613 270.348996 
L 304.68237 270.348996 
L 305.162128 272.631616 
L 305.641885 272.631616 
L 306.121643 274.914236 
L 307.560915 274.914236 
L 308.52043 279.479476 
L 309.479945 279.479476 
L 309.959703 281.762096 
L 310.43946 281.762096 
L 310.919218 284.044716 
L 312.35849 284.044716 
L 312.838247 286.327336 
L 313.318005 286.327336 
L 313.797762 288.609956 
L 314.757277 288.609956 
L 315.237035 290.892576 
L 315.716792 290.892576 
L 316.19655 293.175197 
L 317.156065 293.175197 
L 317.635822 295.457817 
L 319.075094 295.457817 
L 319.554852 297.740437 
L 320.514367 297.740437 
L 320.994124 300.023057 
L 321.953639 300.023057 
L 322.433397 302.305677 
L 323.872669 302.305677 
L 324.352427 304.588297 
L 324.832184 304.588297 
L 325.311941 306.870917 
L 326.751214 306.870917 
L 327.230971 309.153537 
L 328.190486 309.153537 
L 328.670244 311.436157 
L 329.150001 311.436157 
L 329.629759 313.718777 
L 332.508303 313.718777 
L 332.988061 316.001397 
L 333.947576 316.001397 
L 334.427333 318.284017 
L 335.386848 318.284017 
L 335.866606 320.566638 
L 337.785636 320.566638 
L 338.265393 322.849258 
L 339.704665 322.849258 
L 340.184423 325.131878 
L 341.143938 325.131878 
L 341.623695 327.414498 
L 343.542725 327.414498 
L 344.022483 329.697118 
L 345.941512 329.697118 
L 346.42127 331.979738 
L 346.901027 329.697118 
L 347.380785 331.979738 
L 348.3403 331.979738 
L 348.820057 334.262358 
L 350.739087 334.262358 
L 351.218845 336.544978 
L 353.137874 336.544978 
L 353.617632 338.827598 
L 355.536662 338.827598 
L 356.016419 341.110218 
L 358.894964 341.110218 
L 359.374721 343.392838 
L 361.293751 343.392838 
L 361.773509 345.675459 
L 363.692539 345.675459 
L 364.172296 347.958079 
L 364.652054 345.675459 
L 365.131811 347.958079 
L 366.571083 347.958079 
L 367.050841 350.240699 
L 371.848416 350.240699 
L 372.328173 352.523319 
L 375.686475 352.523319 
L 376.166233 354.805939 
L 378.56502 354.805939 
L 379.044778 357.088559 
L 383.362595 357.088559 
L 383.842352 359.371179 
L 388.639927 359.371179 
L 389.119684 361.653799 
L 392.957744 361.653799 
L 393.437502 363.936419 
L 393.917259 361.653799 
L 394.397016 363.936419 
L 399.674349 363.936419 
L 400.154106 366.219039 
L 404.471923 366.219039 
L 404.951681 368.501659 
L 412.6278 368.501659 
L 413.107558 370.784279 
L 420.783677 370.784279 
L 421.263434 373.0669 
L 421.743192 370.784279 
L 422.222949 373.0669 
L 429.899069 373.0669 
L 430.378826 375.34952 
L 440.453733 375.34952 
L 440.933491 377.63214 
L 441.413248 375.34952 
L 442.85252 375.34952 
L 443.332278 377.63214 
L 443.812035 377.63214 
L 444.291793 375.34952 
L 444.77155 377.63214 
L 454.3667 377.63214 
L 454.846457 379.91476 
L 455.326214 377.63214 
L 459.164274 377.63214 
L 459.644032 379.91476 
L 460.603547 379.91476 
L 461.083304 377.63214 
L 461.563062 379.91476 
L 474.516513 379.91476 
L 474.996271 382.19738 
L 475.476028 379.91476 
L 476.435543 379.91476 
L 476.9153 382.19738 
L 501.862689 382.19738 
L 502.342446 384.48 
L 502.342446 384.48 
" clip-path="url(#p2d6bdae908)" style="fill: none; stroke: #ff0000; stroke-width: 2; stroke-linecap: square"/>
   </g>
   <g id="patch_3">
    <path d="M 72 384.48 
L 72 51.84 
" style="fill: none; stroke: #000000; stroke-width: 0.8; stroke-linejoin: miter; stroke-linecap: square"/>
   </g>
   <g id="patch_4">
    <path d="M 518.4 384.48 
L 518.4 51.84 
" style="fill: none; stroke: #000000; stroke-width: 0.8; stroke-linejoin: miter; stroke-linecap: square"/>
   </g>
   <g id="patch_5">
    <path d="M 72 384.48 
L 518.4 384.48 
" style="fill: none; stroke: #000000; stroke-width: 0.8; stroke-linejoin: miter; stroke-linecap: square"/>
   </g>
   <g id="patch_6">
    <path d="M 72 51.84 
L 518.4 51.84 
" style="fill: none; stroke: #000000; stroke-width: 0.8; stroke-linejoin: miter; stroke-linecap: square"/>
   </g>
   <g id="text_16">
    <!-- Время заряда: 5.72564 сек. -->
    <g transform="translate(329.884317 218.730655) scale(0.12 -0.12)">
     <defs>
      <path id="DejaVuSans-20" transform="scale(0.015625)"/>
      <path id="DejaVuSans-437" d="M 2206 1888 
Q 2594 1813 2809 1584 
Q 3025 1356 3025 1019 
Q 3025 478 2622 193 
Q 2219 -91 1475 -91 
Q 1225 -91 961 -47 
Q 697 -3 416 84 
L 416 619 
Q 638 503 903 445 
Q 1169 388 1459 388 
Q 1931 388 2195 563 
Q 2459 738 2459 1019 
Q 2459 1294 2225 1461 
Q 1991 1628 1563 1628 
L 1100 1628 
L 1100 2103 
L 1584 2103 
Q 1947 2103 2158 2242 
Q 2369 2381 2369 2600 
Q 2369 2800 2151 2944 
Q 1934 3088 1563 3088 
Q 1341 3088 1089 3047 
Q 838 3006 534 2916 
L 534 3438 
Q 841 3513 1106 3550 
Q 1372 3588 1609 3588 
Q 2222 3588 2576 3342 
Q 2931 3097 2931 2656 
Q 2931 2366 2743 2164 
Q 2556 1963 2206 1888 
z
" transform="scale(0.015625)"/>
      <path id="DejaVuSans-434" d="M 1384 459 
L 3053 459 
L 3053 3041 
L 1844 3041 
L 1844 2603 
Q 1844 1316 1475 628 
L 1384 459 
z
M 550 459 
Q 834 584 959 850 
Q 1266 1509 1266 2838 
L 1266 3500 
L 3631 3500 
L 3631 459 
L 4091 459 
L 4091 -884 
L 3631 -884 
L 3631 0 
L 794 0 
L 794 -884 
L 334 -884 
L 334 459 
L 550 459 
z
" transform="scale(0.015625)"/>
      <path id="DejaVuSans-3a" d="M 750 794 
L 1409 794 
L 1409 0 
L 750 0 
L 750 794 
z
M 750 3309 
L 1409 3309 
L 1409 2516 
L 750 2516 
L 750 3309 
z
" transform="scale(0.015625)"/>
      <path id="DejaVuSans-37" d="M 525 4666 
L 3525 4666 
L 3525 4397 
L 1831 0 
L 1172 0 
L 2766 4134 
L 525 4134 
L 525 4666 
z
" transform="scale(0.015625)"/>
      <path id="DejaVuSans-43a" d="M 581 3500 
L 1153 3500 
L 1153 1856 
L 2775 3500 
L 3481 3500 
L 2144 2147 
L 3653 0 
L 3009 0 
L 1769 1766 
L 1153 1141 
L 1153 0 
L 581 0 
L 581 3500 
z
" transform="scale(0.015625)"/>
     </defs>
     <use xlink:href="#DejaVuSans-412"/>
     <use xlink:href="#DejaVuSans-440" x="68.603516"/>
     <use xlink:href="#DejaVuSans-435" x="132.080078"/>
     <use xlink:href="#DejaVuSans-43c" x="193.603516"/>
     <use xlink:href="#DejaVuSans-44f" x="269.042969"/>
     <use xlink:href="#DejaVuSans-20" x="329.199219"/>
     <use xlink:href="#DejaVuSans-437" x="360.986328"/>
     <use xlink:href="#DejaVuSans-430" x="414.160156"/>
     <use xlink:href="#DejaVuSans-440" x="475.439453"/>
     <use xlink:href="#DejaVuSans-44f" x="538.916016"/>
     <use xlink:href="#DejaVuSans-434" x="599.072266"/>
     <use xlink:href="#DejaVuSans-430" x="668.212891"/>
     <use xlink:href="#DejaVuSans-3a" x="729.492188"/>
     <use xlink:href="#DejaVuSans-20" x="763.183594"/>
     <use xlink:href="#DejaVuSans-35" x="794.970703"/>
     <use xlink:href="#DejaVuSans-2e" x="858.59375"/>
     <use xlink:href="#DejaVuSans-37" x="890.380859"/>
     <use xlink:href="#DejaVuSans-32" x="954.003906"/>
     <use xlink:href="#DejaVuSans-35" x="1017.626953"/>
     <use xlink:href="#DejaVuSans-36" x="1081.25"/>
     <use xlink:href="#DejaVuSans-34" x="1144.873047"/>
     <use xlink:href="#DejaVuSans-20" x="1208.496094"/>
     <use xlink:href="#DejaVuSans-441" x="1240.283203"/>
     <use xlink:href="#DejaVuSans-435" x="1295.263672"/>
     <use xlink:href="#DejaVuSans-43a" x="1356.787109"/>
     <use xlink:href="#DejaVuSans-2e" x="1417.1875"/>
    </g>
   </g>
   <g id="text_17">
    <!-- Время разряда: 7.67436 cек. -->
    <g transform="translate(329.884317 208.355109) scale(0.12 -0.12)">
     <defs>
      <path id="DejaVuSans-63" d="M 3122 3366 
L 3122 2828 
Q 2878 2963 2633 3030 
Q 2388 3097 2138 3097 
Q 1578 3097 1268 2742 
Q 959 2388 959 1747 
Q 959 1106 1268 751 
Q 1578 397 2138 397 
Q 2388 397 2633 464 
Q 2878 531 3122 666 
L 3122 134 
Q 2881 22 2623 -34 
Q 2366 -91 2075 -91 
Q 1284 -91 818 406 
Q 353 903 353 1747 
Q 353 2603 823 3093 
Q 1294 3584 2113 3584 
Q 2378 3584 2631 3529 
Q 2884 3475 3122 3366 
z
" transform="scale(0.015625)"/>
     </defs>
     <use xlink:href="#DejaVuSans-412"/>
     <use xlink:href="#DejaVuSans-440" x="68.603516"/>
     <use xlink:href="#DejaVuSans-435" x="132.080078"/>
     <use xlink:href="#DejaVuSans-43c" x="193.603516"/>
     <use xlink:href="#DejaVuSans-44f" x="269.042969"/>
     <use xlink:href="#DejaVuSans-20" x="329.199219"/>
     <use xlink:href="#DejaVuSans-440" x="360.986328"/>
     <use xlink:href="#DejaVuSans-430" x="424.462891"/>
     <use xlink:href="#DejaVuSans-437" x="485.742188"/>
     <use xlink:href="#DejaVuSans-440" x="538.916016"/>
     <use xlink:href="#DejaVuSans-44f" x="602.392578"/>
     <use xlink:href="#DejaVuSans-434" x="662.548828"/>
     <use xlink:href="#DejaVuSans-430" x="731.689453"/>
     <use xlink:href="#DejaVuSans-3a" x="792.96875"/>
     <use xlink:href="#DejaVuSans-20" x="826.660156"/>
     <use xlink:href="#DejaVuSans-37" x="858.447266"/>
     <use xlink:href="#DejaVuSans-2e" x="922.070312"/>
     <use xlink:href="#DejaVuSans-36" x="953.857422"/>
     <use xlink:href="#DejaVuSans-37" x="1017.480469"/>
     <use xlink:href="#DejaVuSans-34" x="1081.103516"/>
     <use xlink:href="#DejaVuSans-33" x="1144.726562"/>
     <use xlink:href="#DejaVuSans-36" x="1208.349609"/>
     <use xlink:href="#DejaVuSans-20" x="1271.972656"/>
     <use xlink:href="#DejaVuSans-63" x="1303.759766"/>
     <use xlink:href="#DejaVuSans-435" x="1358.740234"/>
     <use xlink:href="#DejaVuSans-43a" x="1420.263672"/>
     <use xlink:href="#DejaVuSans-2e" x="1480.664062"/>
    </g>
   </g>
   <g id="text_18">
    <!-- Процесс зарядки и разрядки конденсатора в RC цепи -->
    <g transform="translate(75.358437 45.84) scale(0.14 -0.14)">
     <defs>
      <path id="DejaVuSans-Bold-41f" d="M 4769 4666 
L 4769 0 
L 3566 0 
L 3566 3756 
L 1791 3756 
L 1791 0 
L 588 0 
L 588 4666 
L 4769 4666 
z
" transform="scale(0.015625)"/>
      <path id="DejaVuSans-Bold-440" d="M 1656 506 
L 1656 -1331 
L 538 -1331 
L 538 3500 
L 1656 3500 
L 1656 2988 
Q 1888 3294 2169 3439 
Q 2450 3584 2816 3584 
Q 3463 3584 3878 3070 
Q 4294 2556 4294 1747 
Q 4294 938 3878 423 
Q 3463 -91 2816 -91 
Q 2450 -91 2169 54 
Q 1888 200 1656 506 
z
M 2400 2772 
Q 2041 2772 1848 2508 
Q 1656 2244 1656 1747 
Q 1656 1250 1848 986 
Q 2041 722 2400 722 
Q 2759 722 2948 984 
Q 3138 1247 3138 1747 
Q 3138 2247 2948 2509 
Q 2759 2772 2400 2772 
z
" transform="scale(0.015625)"/>
      <path id="DejaVuSans-Bold-43e" d="M 2203 2784 
Q 1831 2784 1636 2517 
Q 1441 2250 1441 1747 
Q 1441 1244 1636 976 
Q 1831 709 2203 709 
Q 2569 709 2762 976 
Q 2956 1244 2956 1747 
Q 2956 2250 2762 2517 
Q 2569 2784 2203 2784 
z
M 2203 3584 
Q 3106 3584 3614 3096 
Q 4122 2609 4122 1747 
Q 4122 884 3614 396 
Q 3106 -91 2203 -91 
Q 1297 -91 786 396 
Q 275 884 275 1747 
Q 275 2609 786 3096 
Q 1297 3584 2203 3584 
z
" transform="scale(0.015625)"/>
      <path id="DejaVuSans-Bold-446" d="M 3666 -884 
L 3666 0 
L 538 0 
L 538 3500 
L 1656 3500 
L 1656 800 
L 2766 800 
L 2766 3500 
L 3884 3500 
L 3884 800 
L 4466 800 
L 4466 -884 
L 3666 -884 
z
" transform="scale(0.015625)"/>
      <path id="DejaVuSans-Bold-435" d="M 4031 1759 
L 4031 1441 
L 1416 1441 
Q 1456 1047 1700 850 
Q 1944 653 2381 653 
Q 2734 653 3104 758 
Q 3475 863 3866 1075 
L 3866 213 
Q 3469 63 3072 -14 
Q 2675 -91 2278 -91 
Q 1328 -91 801 392 
Q 275 875 275 1747 
Q 275 2603 792 3093 
Q 1309 3584 2216 3584 
Q 3041 3584 3536 3087 
Q 4031 2591 4031 1759 
z
M 2881 2131 
Q 2881 2450 2695 2645 
Q 2509 2841 2209 2841 
Q 1884 2841 1681 2658 
Q 1478 2475 1428 2131 
L 2881 2131 
z
" transform="scale(0.015625)"/>
      <path id="DejaVuSans-Bold-441" d="M 3366 3391 
L 3366 2478 
Q 3138 2634 2908 2709 
Q 2678 2784 2431 2784 
Q 1963 2784 1702 2511 
Q 1441 2238 1441 1747 
Q 1441 1256 1702 982 
Q 1963 709 2431 709 
Q 2694 709 2930 787 
Q 3166 866 3366 1019 
L 3366 103 
Q 3103 6 2833 -42 
Q 2563 -91 2291 -91 
Q 1344 -91 809 395 
Q 275 881 275 1747 
Q 275 2613 809 3098 
Q 1344 3584 2291 3584 
Q 2566 3584 2833 3536 
Q 3100 3488 3366 3391 
z
" transform="scale(0.015625)"/>
      <path id="DejaVuSans-Bold-20" transform="scale(0.015625)"/>
      <path id="DejaVuSans-Bold-437" d="M 900 2181 
L 1413 2181 
Q 1872 2181 2039 2281 
Q 2206 2381 2206 2519 
Q 2206 2841 1469 2841 
Q 853 2841 472 2625 
L 472 3434 
Q 1041 3584 1713 3584 
Q 2500 3584 2862 3361 
Q 3225 3138 3225 2666 
Q 3225 2047 2541 1888 
Q 3313 1697 3313 994 
Q 3313 453 2888 181 
Q 2463 -91 1553 -91 
Q 875 -91 313 84 
L 313 947 
Q 1013 653 1428 653 
Q 1884 653 2089 776 
Q 2294 900 2294 1056 
Q 2294 1491 1394 1491 
L 900 1491 
L 900 2181 
z
" transform="scale(0.015625)"/>
      <path id="DejaVuSans-Bold-430" d="M 2106 1575 
Q 1756 1575 1579 1456 
Q 1403 1338 1403 1106 
Q 1403 894 1545 773 
Q 1688 653 1941 653 
Q 2256 653 2472 879 
Q 2688 1106 2688 1447 
L 2688 1575 
L 2106 1575 
z
M 3816 1997 
L 3816 0 
L 2688 0 
L 2688 519 
Q 2463 200 2181 54 
Q 1900 -91 1497 -91 
Q 953 -91 614 226 
Q 275 544 275 1050 
Q 275 1666 698 1953 
Q 1122 2241 2028 2241 
L 2688 2241 
L 2688 2328 
Q 2688 2594 2478 2717 
Q 2269 2841 1825 2841 
Q 1466 2841 1156 2769 
Q 847 2697 581 2553 
L 581 3406 
Q 941 3494 1303 3539 
Q 1666 3584 2028 3584 
Q 2975 3584 3395 3211 
Q 3816 2838 3816 1997 
z
" transform="scale(0.015625)"/>
      <path id="DejaVuSans-Bold-44f" d="M 1528 2394 
Q 1528 2169 1651 2069 
Q 1775 1969 2059 1969 
L 2463 1969 
L 2463 2816 
L 2059 2816 
Q 1775 2816 1651 2719 
Q 1528 2622 1528 2394 
z
M 197 0 
L 1113 1497 
Q 847 1650 650 1917 
Q 453 2184 453 2516 
Q 453 3013 789 3256 
Q 1125 3500 1878 3500 
L 3581 3500 
L 3581 0 
L 2463 0 
L 2463 1278 
L 2069 1278 
L 1288 0 
L 197 0 
z
" transform="scale(0.015625)"/>
      <path id="DejaVuSans-Bold-434" d="M 547 800 
Q 903 919 1053 1314 
Q 1203 1709 1203 2838 
L 1203 3500 
L 4228 3500 
L 4228 800 
L 4809 800 
L 4809 -884 
L 4009 -884 
L 4009 0 
L 1159 0 
L 1159 -884 
L 359 -884 
L 359 800 
L 547 800 
z
M 3109 2700 
L 2322 2700 
L 2322 2603 
Q 2322 1456 2063 800 
L 3109 800 
L 3109 2700 
z
" transform="scale(0.015625)"/>
      <path id="DejaVuSans-Bold-43a" d="M 538 3500 
L 1656 3500 
L 1656 2316 
L 2903 3500 
L 4128 3500 
L 2634 2078 
L 4250 0 
L 3094 0 
L 1972 1447 
L 1656 1147 
L 1656 0 
L 538 0 
L 538 3500 
z
" transform="scale(0.015625)"/>
      <path id="DejaVuSans-Bold-438" d="M 3947 3500 
L 3947 0 
L 2828 0 
L 2828 1863 
L 1700 0 
L 538 0 
L 538 3500 
L 1656 3500 
L 1656 1638 
L 2784 3500 
L 3947 3500 
z
" transform="scale(0.015625)"/>
      <path id="DejaVuSans-Bold-43d" d="M 538 3500 
L 1656 3500 
L 1656 2169 
L 2766 2169 
L 2766 3500 
L 3884 3500 
L 3884 0 
L 2766 0 
L 2766 1478 
L 1656 1478 
L 1656 0 
L 538 0 
L 538 3500 
z
" transform="scale(0.015625)"/>
      <path id="DejaVuSans-Bold-442" d="M 25 3500 
L 3681 3500 
L 3681 2809 
L 2413 2809 
L 2413 0 
L 1297 0 
L 1297 2809 
L 25 2809 
L 25 3500 
z
" transform="scale(0.015625)"/>
      <path id="DejaVuSans-Bold-432" d="M 2184 2181 
Q 2378 2181 2478 2261 
Q 2578 2341 2578 2497 
Q 2578 2653 2478 2731 
Q 2378 2809 2184 2809 
L 1656 2809 
L 1656 2181 
L 2184 2181 
z
M 2222 700 
Q 2469 700 2594 798 
Q 2719 897 2719 1094 
Q 2719 1288 2594 1384 
Q 2469 1481 2222 1481 
L 1656 1481 
L 1656 700 
L 2222 700 
z
M 538 3500 
L 2141 3500 
Q 2919 3500 3267 3279 
Q 3616 3059 3616 2575 
Q 3616 2319 3487 2139 
Q 3359 1959 3119 1872 
Q 3428 1788 3598 1561 
Q 3769 1334 3769 1003 
Q 3769 497 3403 248 
Q 3038 0 2294 0 
L 538 0 
L 538 3500 
z
" transform="scale(0.015625)"/>
      <path id="DejaVuSans-Bold-52" d="M 2297 2597 
Q 2675 2597 2839 2737 
Q 3003 2878 3003 3200 
Q 3003 3519 2839 3656 
Q 2675 3794 2297 3794 
L 1791 3794 
L 1791 2597 
L 2297 2597 
z
M 1791 1766 
L 1791 0 
L 588 0 
L 588 4666 
L 2425 4666 
Q 3347 4666 3776 4356 
Q 4206 4047 4206 3378 
Q 4206 2916 3982 2619 
Q 3759 2322 3309 2181 
Q 3556 2125 3751 1926 
Q 3947 1728 4147 1325 
L 4800 0 
L 3519 0 
L 2950 1159 
Q 2778 1509 2601 1637 
Q 2425 1766 2131 1766 
L 1791 1766 
z
" transform="scale(0.015625)"/>
      <path id="DejaVuSans-Bold-43" d="M 4288 256 
Q 3956 84 3597 -3 
Q 3238 -91 2847 -91 
Q 1681 -91 1000 561 
Q 319 1213 319 2328 
Q 319 3447 1000 4098 
Q 1681 4750 2847 4750 
Q 3238 4750 3597 4662 
Q 3956 4575 4288 4403 
L 4288 3438 
Q 3953 3666 3628 3772 
Q 3303 3878 2944 3878 
Q 2300 3878 1931 3465 
Q 1563 3053 1563 2328 
Q 1563 1606 1931 1193 
Q 2300 781 2944 781 
Q 3303 781 3628 887 
Q 3953 994 4288 1222 
L 4288 256 
z
" transform="scale(0.015625)"/>
      <path id="DejaVuSans-Bold-43f" d="M 3884 3500 
L 3884 0 
L 2766 0 
L 2766 2700 
L 1656 2700 
L 1656 0 
L 538 0 
L 538 3500 
L 3884 3500 
z
" transform="scale(0.015625)"/>
     </defs>
     <use xlink:href="#DejaVuSans-Bold-41f"/>
     <use xlink:href="#DejaVuSans-Bold-440" x="83.691406"/>
     <use xlink:href="#DejaVuSans-Bold-43e" x="155.273438"/>
     <use xlink:href="#DejaVuSans-Bold-446" x="223.974609"/>
     <use xlink:href="#DejaVuSans-Bold-435" x="298.095703"/>
     <use xlink:href="#DejaVuSans-Bold-441" x="365.917969"/>
     <use xlink:href="#DejaVuSans-Bold-441" x="425.195312"/>
     <use xlink:href="#DejaVuSans-Bold-20" x="484.472656"/>
     <use xlink:href="#DejaVuSans-Bold-437" x="519.287109"/>
     <use xlink:href="#DejaVuSans-Bold-430" x="577.392578"/>
     <use xlink:href="#DejaVuSans-Bold-440" x="644.873047"/>
     <use xlink:href="#DejaVuSans-Bold-44f" x="716.455078"/>
     <use xlink:href="#DejaVuSans-Bold-434" x="780.664062"/>
     <use xlink:href="#DejaVuSans-Bold-43a" x="861.425781"/>
     <use xlink:href="#DejaVuSans-Bold-438" x="929.296875"/>
     <use xlink:href="#DejaVuSans-Bold-20" x="999.365234"/>
     <use xlink:href="#DejaVuSans-Bold-438" x="1034.179688"/>
     <use xlink:href="#DejaVuSans-Bold-20" x="1104.248047"/>
     <use xlink:href="#DejaVuSans-Bold-440" x="1139.0625"/>
     <use xlink:href="#DejaVuSans-Bold-430" x="1210.644531"/>
     <use xlink:href="#DejaVuSans-Bold-437" x="1278.125"/>
     <use xlink:href="#DejaVuSans-Bold-440" x="1336.230469"/>
     <use xlink:href="#DejaVuSans-Bold-44f" x="1407.8125"/>
     <use xlink:href="#DejaVuSans-Bold-434" x="1472.021484"/>
     <use xlink:href="#DejaVuSans-Bold-43a" x="1552.783203"/>
     <use xlink:href="#DejaVuSans-Bold-438" x="1620.654297"/>
     <use xlink:href="#DejaVuSans-Bold-20" x="1690.722656"/>
     <use xlink:href="#DejaVuSans-Bold-43a" x="1725.537109"/>
     <use xlink:href="#DejaVuSans-Bold-43e" x="1793.408203"/>
     <use xlink:href="#DejaVuSans-Bold-43d" x="1862.109375"/>
     <use xlink:href="#DejaVuSans-Bold-434" x="1931.201172"/>
     <use xlink:href="#DejaVuSans-Bold-435" x="2011.962891"/>
     <use xlink:href="#DejaVuSans-Bold-43d" x="2079.785156"/>
     <use xlink:href="#DejaVuSans-Bold-441" x="2148.876953"/>
     <use xlink:href="#DejaVuSans-Bold-430" x="2208.154297"/>
     <use xlink:href="#DejaVuSans-Bold-442" x="2275.634766"/>
     <use xlink:href="#DejaVuSans-Bold-43e" x="2333.59375"/>
     <use xlink:href="#DejaVuSans-Bold-440" x="2402.294922"/>
     <use xlink:href="#DejaVuSans-Bold-430" x="2473.876953"/>
     <use xlink:href="#DejaVuSans-Bold-20" x="2541.357422"/>
     <use xlink:href="#DejaVuSans-Bold-432" x="2576.171875"/>
     <use xlink:href="#DejaVuSans-Bold-20" x="2639.453125"/>
     <use xlink:href="#DejaVuSans-Bold-52" x="2674.267578"/>
     <use xlink:href="#DejaVuSans-Bold-43" x="2751.269531"/>
     <use xlink:href="#DejaVuSans-Bold-20" x="2824.658203"/>
     <use xlink:href="#DejaVuSans-Bold-446" x="2859.472656"/>
     <use xlink:href="#DejaVuSans-Bold-435" x="2933.59375"/>
     <use xlink:href="#DejaVuSans-Bold-43f" x="3001.416016"/>
     <use xlink:href="#DejaVuSans-Bold-438" x="3070.507812"/>
    </g>
   </g>
   <g id="legend_1">
    <g id="patch_7">
     <path d="M 437.810313 83.589375 
L 508.6 83.589375 
Q 511.4 83.589375 511.4 80.789375 
L 511.4 61.64 
Q 511.4 58.84 508.6 58.84 
L 437.810313 58.84 
Q 435.010312 58.84 435.010312 61.64 
L 435.010312 80.789375 
Q 435.010312 83.589375 437.810313 83.589375 
z
" style="fill: #ffffff; opacity: 0.8; stroke: #cccccc; stroke-linejoin: miter"/>
    </g>
    <g id="line2d_122">
     <path d="M 440.610313 70.177812 
L 454.610313 70.177812 
L 468.610313 70.177812 
" style="fill: none; stroke: #ff0000; stroke-width: 2; stroke-linecap: square"/>
    </g>
    <g id="text_19">
     <!-- V(t) -->
     <g transform="translate(479.810313 75.077812) scale(0.14 -0.14)">
      <defs>
       <path id="DejaVuSans-56" d="M 1831 0 
L 50 4666 
L 709 4666 
L 2188 738 
L 3669 4666 
L 4325 4666 
L 2547 0 
L 1831 0 
z
" transform="scale(0.015625)"/>
       <path id="DejaVuSans-28" d="M 1984 4856 
Q 1566 4138 1362 3434 
Q 1159 2731 1159 2009 
Q 1159 1288 1364 580 
Q 1569 -128 1984 -844 
L 1484 -844 
Q 1016 -109 783 600 
Q 550 1309 550 2009 
Q 550 2706 781 3412 
Q 1013 4119 1484 4856 
L 1984 4856 
z
" transform="scale(0.015625)"/>
       <path id="DejaVuSans-74" d="M 1172 4494 
L 1172 3500 
L 2356 3500 
L 2356 3053 
L 1172 3053 
L 1172 1153 
Q 1172 725 1289 603 
Q 1406 481 1766 481 
L 2356 481 
L 2356 0 
L 1766 0 
Q 1100 0 847 248 
Q 594 497 594 1153 
L 594 3053 
L 172 3053 
L 172 3500 
L 594 3500 
L 594 4494 
L 1172 4494 
z
" transform="scale(0.015625)"/>
       <path id="DejaVuSans-29" d="M 513 4856 
L 1013 4856 
Q 1481 4119 1714 3412 
Q 1947 2706 1947 2009 
Q 1947 1309 1714 600 
Q 1481 -109 1013 -844 
L 513 -844 
Q 928 -128 1133 580 
Q 1338 1288 1338 2009 
Q 1338 2731 1133 3434 
Q 928 4138 513 4856 
z
" transform="scale(0.015625)"/>
      </defs>
      <use xlink:href="#DejaVuSans-56"/>
      <use xlink:href="#DejaVuSans-28" x="68.408203"/>
      <use xlink:href="#DejaVuSans-74" x="107.421875"/>
      <use xlink:href="#DejaVuSans-29" x="146.630859"/>
     </g>
    </g>
   </g>
  </g>
 </g>
 <defs>
  <clipPath id="p2d6bdae908">
   <rect x="72" y="51.84" width="446.4" height="332.64"/>
  </clipPath>
 </defs>
</svg>
